<?xml version="1.0" encoding="UTF-8"?>
<svg version="1.1" xmlns="http://www.w3.org/2000/svg" width="1536" height="1024">
<path d="M0 0 C506.88 0 1013.76 0 1536 0 C1536 337.92 1536 675.84 1536 1024 C1029.12 1024 522.24 1024 0 1024 C0 686.08 0 348.16 0 0 Z " fill="#FCFCFB" transform="translate(0,0)"/>
<path d="M0 0 C0.92448057 -0.00594224 1.84896114 -0.01188449 2.80145627 -0.0180068 C5.88877751 -0.03530303 8.97594294 -0.03839062 12.06330872 -0.04138184 C14.28129912 -0.05064368 16.49928635 -0.06069374 18.7172699 -0.07147217 C24.73606302 -0.09767076 30.75481158 -0.11060031 36.77365279 -0.11949348 C40.53689593 -0.12536271 44.30012699 -0.13357378 48.06336403 -0.14250183 C58.49747567 -0.16670903 68.93157878 -0.18747681 79.36571789 -0.19425201 C80.03260105 -0.19469115 80.69948421 -0.19513028 81.38657596 -0.19558272 C82.05498694 -0.19601927 82.72339792 -0.19645583 83.41206378 -0.19690561 C84.76635246 -0.19779252 86.12064114 -0.19868565 87.47492981 -0.19958496 C88.48257479 -0.20024925 88.48257479 -0.20024925 89.51057623 -0.20092696 C100.38854568 -0.20881824 111.2662468 -0.24371689 122.14411267 -0.29030401 C133.33151058 -0.33782724 144.51881089 -0.36214493 155.70631963 -0.36498785 C161.98000128 -0.36708073 168.25330411 -0.37882715 174.52689171 -0.41462708 C180.43106322 -0.44766472 186.33457266 -0.45186329 192.23880386 -0.43434906 C194.39945185 -0.43281237 196.56013601 -0.44144041 198.72069359 -0.46126556 C220.42687533 -0.64867838 220.42687533 -0.64867838 229.62117004 6.28088379 C235.73811033 12.46253843 236.84914424 19.67182203 236.84776306 28.08738708 C236.83744049 29.05745193 236.82711792 30.02751678 236.81648254 31.02697754 C236.8122377 32.54364769 236.8122377 32.54364769 236.8079071 34.09095764 C236.79676894 37.30022331 236.77167601 40.50920337 236.74617004 43.71838379 C236.73613202 45.90262453 236.72700761 48.08686968 236.71882629 50.27111816 C236.69685048 55.6078031 236.66343661 60.94432303 236.62117004 66.28088379 C237.45293227 66.27811841 238.2846945 66.27535303 239.14166164 66.27250385 C259.39859986 66.20619422 279.65551932 66.15657896 299.9125433 66.12544727 C309.70876913 66.10999131 319.50492242 66.08892608 329.30110168 66.05456543 C337.84140226 66.02462417 346.38165029 66.00529955 354.9220019 65.9986183 C359.44228882 65.99471405 363.96242545 65.98556503 368.48266411 65.96369362 C372.74175365 65.94325376 377.00063169 65.93706509 381.25976562 65.94156075 C382.818565 65.94073889 384.37737182 65.93481801 385.93612862 65.92326736 C397.91599968 65.83888722 408.36232519 66.92756275 417.62117004 75.28088379 C425.13407264 85.17040284 424.40667157 95.93776861 424.20710754 107.70275879 C424.19589575 109.65857634 424.18736496 111.61441093 424.18138123 113.57025146 C424.15863886 118.68009211 424.09984389 123.78888459 424.03315735 128.89831543 C423.97141745 134.12725654 423.94429892 139.35636955 423.91413879 144.58557129 C423.85008451 154.81779881 423.74788495 165.04925362 423.62117004 175.28088379 C424.6787747 175.27627482 425.73637936 175.27166586 426.82603264 175.26691723 C452.57443378 175.15585903 478.3228038 175.07372637 504.07139397 175.02182293 C516.52329401 174.99605486 528.9750357 174.96093074 541.42683411 174.90368652 C552.28137829 174.85380915 563.13580778 174.82158263 573.99046338 174.81044132 C579.73655785 174.80392999 585.48232424 174.78865506 591.22831345 174.75223351 C596.64066221 174.71820588 602.05254885 174.70784465 607.46499443 174.71534538 C609.4474902 174.71397388 611.43000199 174.70408202 613.41240501 174.68485641 C625.05640006 174.57750447 633.90122054 174.70262466 643.24226379 182.45666504 C643.84167786 183.16178223 644.44109192 183.86689941 645.05867004 184.59338379 C645.67613098 185.2907666 646.29359192 185.98814941 646.92976379 186.70666504 C650.80314279 192.60171529 652.06979132 198.2645044 651.98193359 205.22827148 C651.98449687 205.98648052 651.98706014 206.74468955 651.98970109 207.52587461 C651.99460769 210.04404289 651.97819847 212.5615997 651.96174622 215.07971191 C651.96089927 216.89367661 651.96137641 218.70764234 651.96307373 220.52160645 C651.96393245 225.43015786 651.94632657 230.33848815 651.92535186 235.2469883 C651.90656457 240.38258358 651.904833 245.51818425 651.90127563 250.65380859 C651.8919612 260.37173234 651.86735554 270.08955453 651.83722717 279.80743361 C651.80366444 290.87389969 651.78719243 301.9403707 651.77214086 313.00687504 C651.74080548 335.7649342 651.68805665 358.5229033 651.62117004 381.28088379 C653.19902928 381.27673572 653.19902928 381.27673572 654.80876446 381.27250385 C680.38854128 381.20594377 705.96830688 381.15662485 731.54815197 381.12544727 C743.91830712 381.1099698 756.2884051 381.08886341 768.65852356 381.05456543 C779.43867334 381.02469009 790.21878173 381.0053152 800.99897176 380.9986183 C806.70848514 380.9947029 812.4178801 380.98548276 818.12735558 380.96369362 C823.49939315 380.943358 828.87126331 380.9370441 834.24333572 380.94156075 C836.21662747 380.94073424 838.18992471 380.93475125 840.16318321 380.92326736 C842.85476372 380.90836909 845.54570988 380.91192046 848.23730469 380.92012024 C849.02038488 380.91138171 849.80346507 380.90264319 850.61027497 380.89363986 C855.11701823 380.93081876 858.04581641 381.47033195 861.62117004 384.28088379 C862.7711037 386.5807511 862.85286295 388.09557467 862.93367004 390.65588379 C862.97105286 391.42674316 863.00843567 392.19760254 863.04695129 392.99182129 C862.43355919 396.28950727 861.29260883 397.26012788 858.62117004 399.28088379 C855.7131975 399.66512105 853.18743466 399.80455447 850.28163147 399.76190186 C849.43291843 399.76531955 848.58420539 399.76873725 847.70977378 399.77225852 C844.86121249 399.77885578 842.01359007 399.75683103 839.16511536 399.73498535 C837.12514264 399.73385727 835.0851683 399.73448996 833.04519653 399.73675537 C827.50208003 399.73790498 821.95930839 399.71435545 816.41627216 399.68645954 C810.62535656 399.6614872 804.83443343 399.65910717 799.04347229 399.65435791 C788.07520402 399.64191589 777.10709485 399.6090776 766.1388967 399.56895995 C753.65296962 399.52428045 741.16703502 399.5022648 728.68104792 399.48217821 C702.99433368 399.44034612 677.30776077 399.36997016 651.62117004 399.28088379 C651.6267008 401.03736394 651.6267008 401.03736394 651.63234329 402.82932854 C651.71904455 430.64951039 651.78496702 458.46968169 651.82543136 486.28997039 C651.83043396 489.71695478 651.83561128 493.14393889 651.84089661 496.57092285 C651.84247047 497.59426437 651.84247047 497.59426437 651.84407613 498.63827945 C651.86146365 509.67316214 651.89299217 520.70796115 651.92978123 531.74279426 C651.96723678 543.07234556 651.98911637 554.40183497 651.99752402 565.73145211 C652.00273527 572.09229048 652.01496969 578.45293931 652.04409027 584.81371689 C652.07129111 590.8038405 652.07960546 596.79369692 652.07360077 602.78387642 C652.0746989 604.97921896 652.08262469 607.17457067 652.09799194 609.3698597 C652.11799257 612.37510229 652.11307223 615.37934568 652.10218811 618.38461304 C652.11966516 619.67746116 652.11966516 619.67746116 652.13749528 620.99642742 C652.05416006 629.55166221 649.2748522 637.42081369 643.39851379 643.74572754 C636.32116383 649.85869135 629.47437035 651.43492464 620.3575592 651.40113831 C619.51701327 651.40199273 618.67646734 651.40284716 617.81045032 651.40372747 C614.98984833 651.40537649 612.16930563 651.39987032 609.34870911 651.39440918 C607.32844036 651.39412716 605.30817152 651.39428534 603.28790283 651.39485168 C597.79863639 651.39513907 592.30939172 651.38925177 586.82013035 651.38227773 C581.08525261 651.37603447 575.35037439 651.37543962 569.61549377 651.37425232 C558.75354499 651.37114188 547.89160625 651.36293234 537.02966189 651.35290283 C524.6646304 651.3417328 512.29959844 651.33622899 499.93456316 651.33120739 C474.49675988 651.32074951 449.05896553 651.3031556 423.62117004 651.28088379 C423.63005249 652.32578476 423.63893494 653.37068573 423.64808655 654.44725037 C423.72935232 664.31891849 423.78922164 674.19051828 423.82841873 684.06244564 C423.84924821 689.13710973 423.87748083 694.21150267 423.92292786 699.28601074 C423.9665514 704.18787343 423.99034201 709.08947612 424.00067902 713.99151802 C424.00804083 715.85694022 424.02241655 717.72234902 424.04409027 719.58765984 C424.25034712 738.08288655 424.25034712 738.08288655 419.62117004 745.28088379 C419.06429504 746.33275879 418.50742004 747.38463379 417.93367004 748.46838379 C412.8507502 754.65031332 406.50366364 758.05018188 398.62117004 759.28088379 C393.36104388 759.56550361 388.10739787 759.5340461 382.84187317 759.50793457 C381.24465441 759.50736979 379.64743513 759.50768832 378.05021667 759.50881958 C373.73260033 759.50939149 369.41509597 759.49766344 365.09750557 759.48367167 C360.5785034 759.47113728 356.05949844 759.46999167 351.54048157 759.46762085 C342.99130883 759.46141403 334.44218747 759.44501403 325.89303732 759.42492187 C316.15664765 759.40253801 306.42025548 759.39156319 296.68384647 759.381531 C276.6629257 759.36064708 256.64205111 759.32548665 236.62117004 759.28088379 C236.6311628 760.11534279 236.6311628 760.11534279 236.64135742 760.96665955 C236.70806562 766.79098696 236.75311692 772.61520468 236.78596497 778.43981934 C236.80099041 780.60946058 236.82141658 782.77907177 236.8474884 784.9486084 C236.8841471 788.07897389 236.90095931 791.20893549 236.91413879 794.33947754 C236.93736458 795.77909096 236.93736458 795.77909096 236.96105957 797.24778748 C236.9631677 805.8096366 235.24854779 813.58886701 229.62117004 820.28088379 C224.53273859 824.15228834 220.01232168 826.39844619 213.55932999 826.41510487 C212.7551184 826.41956271 211.95090682 826.42402055 211.12232518 826.42861348 C209.80561051 826.42833694 209.80561051 826.42833694 208.46229553 826.42805481 C207.52530532 826.4317315 206.5883151 826.43540819 205.62293124 826.43919629 C202.47552876 826.45023093 199.32815929 826.45407659 196.18074036 826.45788574 C193.92714839 826.46415049 191.67355745 826.4707973 189.41996765 826.47779846 C183.29176722 826.49520544 177.16357459 826.50575915 171.03535557 826.51400399 C167.20733823 826.51915422 163.37932331 826.5252299 159.55130768 826.53151512 C148.94831252 826.54838256 138.34531949 826.5630179 127.74231339 826.57026386 C124.99229684 826.57217367 122.24228031 826.57409402 119.49226379 826.5760498 C118.80878289 826.57653354 118.12530198 826.57701729 117.42110953 826.57751568 C106.34955679 826.58581576 95.2781121 826.61115384 84.20660654 826.64363048 C72.83399017 826.67671788 61.46144804 826.69438141 50.08877635 826.6979081 C43.70571598 826.70026002 37.32282649 826.70923943 30.93981171 826.73436928 C24.93485436 826.75762904 18.93018067 826.76189147 12.92518997 826.75160789 C10.72255892 826.75111194 8.519914 826.75744984 6.31732559 826.77116394 C3.30720337 826.78885585 0.29810214 826.78178952 -2.71202087 826.76863098 C-3.58090777 826.77960023 -4.44979467 826.79056947 -5.34501147 826.80187112 C-12.20810947 826.7295799 -17.39413564 824.84959284 -22.62101746 820.35119629 C-23.15984558 819.70924316 -23.69867371 819.06729004 -24.25382996 818.40588379 C-24.80812683 817.76908691 -25.36242371 817.13229004 -25.93351746 816.47619629 C-29.97296304 810.34060598 -29.67535796 803.97362989 -29.6693573 796.89465332 C-29.67607452 795.75570618 -29.68279175 794.61675903 -29.68971252 793.44329834 C-29.70868904 789.68338645 -29.71261648 785.92365307 -29.71476746 782.16369629 C-29.7211952 779.54584683 -29.72792354 776.92799809 -29.73493958 774.31015015 C-29.74771281 768.82430868 -29.75070623 763.33851546 -29.74943542 757.85266113 C-29.74823429 751.5257539 -29.76933602 745.19918793 -29.80092275 738.87236702 C-29.83029788 732.76946184 -29.83740963 726.66671958 -29.83621597 720.56374741 C-29.83857368 717.97463461 -29.8474067 715.3855192 -29.86288071 712.79645157 C-29.88251249 709.17264861 -29.87671278 705.54972087 -29.8646698 701.92590332 C-29.87590881 700.86070465 -29.88714783 699.79550598 -29.89872742 698.69802856 C-29.8353656 691.18132407 -28.39694407 685.78776133 -23.44914246 680.03869629 C-22.80718933 679.49986816 -22.16523621 678.96104004 -21.50382996 678.40588379 C-20.54863464 677.57443848 -20.54863464 677.57443848 -19.57414246 676.72619629 C-13.99961188 673.05613167 -8.45199829 672.9921738 -2.01741028 673.02018738 C-1.08279477 673.01636183 -0.14817925 673.01253628 0.81475794 673.00859481 C3.94218061 672.99828744 7.06941892 673.0022527 10.19685364 673.00622559 C12.44088918 673.00187786 14.68492323 672.9966945 16.92895508 672.99073792 C23.02193454 672.97734303 29.11485199 672.97676982 35.2078433 672.97930121 C40.29486231 672.98037063 45.38186875 672.97548829 50.46888506 672.97069579 C63.15672969 672.95896433 75.84452943 672.95982665 88.53237362 672.9662526 C99.5423508 672.9714207 110.55223948 672.96016843 121.56219916 672.94115438 C132.87612285 672.92176569 144.18999249 672.91381309 155.50393736 672.91727763 C161.85227461 672.91909082 168.2005308 672.91645075 174.54885483 672.9025631 C180.51934262 672.88999086 186.48965326 672.89192331 192.46013832 672.90497398 C194.64986163 672.90734064 196.83959737 672.9046019 199.02930641 672.89635086 C202.02167074 672.88588947 205.01344001 672.89397953 208.00578308 672.90666199 C208.86941479 672.8992877 209.7330465 672.89191342 210.62284887 672.88431567 C218.3353963 672.95294024 224.93021463 674.74801047 230.62117004 680.28088379 C236.67171733 687.88728609 236.91605674 695.81692412 236.81648254 705.12463379 C236.8122377 706.63918152 236.8122377 706.63918152 236.8079071 708.18432617 C236.79678535 711.38330346 236.77169568 714.58199229 236.74617004 717.78088379 C236.7361299 719.96056722 236.72700586 722.14025508 236.71882629 724.31994629 C236.6968723 729.64035584 236.66347523 734.9605992 236.62117004 740.28088379 C257.78749577 740.26708197 278.95359481 740.22487509 300.11979198 740.14879322 C309.94750644 740.11413077 319.77508044 740.08878605 329.6028595 740.08532715 C338.16814051 740.082289 346.73317147 740.06181865 355.29835588 740.02035922 C359.83420034 739.99901391 364.36968918 739.98643641 368.90558434 739.99473 C373.17473945 740.00226054 377.44317343 739.98648857 381.71219635 739.95282364 C383.27909279 739.94457824 384.84606077 739.94485476 386.41295052 739.95428658 C388.55341364 739.96589563 390.69150816 739.94681634 392.83178711 739.92012024 C394.62790074 739.91597217 394.62790074 739.91597217 396.46029949 739.9117403 C400.67939704 739.06967951 402.11981743 737.75714988 404.62117004 734.28088379 C405.1127237 731.51734524 405.29532926 729.37023616 405.24935913 726.61401367 C405.25645352 725.84964509 405.26354791 725.0852765 405.27085727 724.29774523 C405.28843923 721.74017871 405.27033269 719.18413159 405.25227356 716.62658691 C405.25741233 714.79161385 405.26469328 712.95664572 405.2739563 711.12168884 C405.29248393 706.1402175 405.27952308 701.1592808 405.259866 696.17783165 C405.24348948 690.96579737 405.25229101 685.75379721 405.25738525 680.54174805 C405.26190732 671.78885348 405.24602931 663.03617253 405.21809387 654.2833252 C405.18604151 644.16248168 405.18605737 634.04202347 405.20330864 623.92115259 C405.21917001 614.18692345 405.21244266 604.45283563 405.19537163 594.71861267 C405.18849734 590.57515198 405.18953747 586.43180445 405.19691658 582.28834534 C405.20457524 577.40940078 405.19246691 572.53089495 405.16506767 567.65202522 C405.15817837 565.86097071 405.15809171 564.06987527 405.1652832 562.27882195 C405.17396661 559.83464228 405.15804205 557.39182003 405.13583374 554.94775391 C405.14819489 553.88330512 405.14819489 553.88330512 405.16080576 552.79735231 C405.10188365 549.28653031 404.67026636 547.35851202 402.77650356 544.36420441 C399.1761961 540.88418858 395.94944277 541.14881991 391.14822388 541.12266541 C390.15820107 541.11525844 390.15820107 541.11525844 389.1481778 541.10770184 C386.93255342 541.09232142 384.71695802 541.08396477 382.501297 541.07556152 C380.91466516 541.06598342 379.32803589 541.05597338 377.7414093 541.04556274 C373.42975732 541.01850022 369.11809438 540.99749795 364.80640435 540.97756076 C360.30202751 540.95570953 355.79768451 540.92831662 351.29333496 540.90150452 C342.76174685 540.85156596 334.23013997 540.80663144 325.69851512 540.76348215 C315.98639519 540.71411972 306.27430922 540.6591979 296.56222212 540.60380256 C276.58190305 540.48996466 256.60155158 540.38312955 236.62117004 540.28088379 C236.63005249 540.84749725 236.63893494 541.41411072 236.64808655 541.99789429 C236.73710455 547.9358707 236.79712834 553.87365523 236.84089661 559.81213379 C236.86091751 562.02347524 236.88814264 564.23476437 236.92292786 566.44592285 C236.97186631 569.63843757 236.99423472 572.83024775 237.01179504 576.02307129 C237.03244019 576.99952606 237.05308533 577.97598083 237.07435608 578.98202515 C237.07710447 587.53510515 235.14756687 594.7902758 229.30867004 601.21838379 C223.43005766 607.0115926 216.89854981 607.722505 209.06356812 607.66856384 C207.64811255 607.67664215 207.64811255 607.67664215 206.20406193 607.68488365 C203.05202985 607.69915519 199.9004182 607.69206139 196.74836731 607.68493652 C194.48447838 607.69064048 192.22059233 607.69760484 189.95671082 607.70573425 C183.81418062 607.72367745 177.67179319 607.72249508 171.52924466 607.71679187 C166.39991951 607.71370182 161.27062186 607.71979041 156.14130062 607.72583061 C143.34870688 607.74068092 130.55621335 607.73705912 117.76362353 607.72496731 C106.66314975 607.71503518 95.56284267 607.7279766 84.4623946 607.7519015 C73.05350387 607.7763052 61.64472015 607.78549778 50.2357983 607.77924877 C43.83491715 607.77587753 37.43417373 607.77830564 31.03331184 607.7954998 C25.01433466 607.81096251 18.99567585 607.80702049 12.97671127 607.78819466 C10.76925022 607.78450701 8.56176561 607.7876223 6.35432625 607.79808044 C3.33776908 607.81127954 0.3222676 607.79975177 -2.69424438 607.78208923 C-3.56497587 607.79169424 -4.43570736 607.80129925 -5.33282465 607.81119531 C-12.1992789 607.72863821 -17.42525322 605.86912263 -22.62101746 601.31604004 C-23.15984558 600.66506348 -23.69867371 600.01408691 -24.25382996 599.34338379 C-24.80812683 598.69498535 -25.36242371 598.04658691 -25.93351746 597.37854004 C-28.64533852 593.44273488 -29.62834784 589.91546478 -29.63952637 585.1643219 C-29.64661118 584.15642105 -29.65369598 583.1485202 -29.66099548 582.1100769 C-29.65851807 581.01539093 -29.65604065 579.92070496 -29.65348816 578.79284668 C-29.65859909 577.63132584 -29.66371002 576.46980499 -29.66897583 575.27308655 C-29.68287704 571.43318531 -29.68191468 567.59346345 -29.67961121 563.75354004 C-29.68251539 561.75919591 -29.68542422 559.76485171 -29.68901795 557.77050871 C-29.70010325 551.50156922 -29.70055602 545.23268966 -29.69450378 538.96374512 C-29.68846359 532.50452382 -29.70077824 526.04552033 -29.72207385 519.5863362 C-29.73970756 514.03288261 -29.74568845 508.47949824 -29.74243611 502.9260177 C-29.74062596 499.61259191 -29.74455124 496.29935587 -29.75715065 492.98594856 C-29.76948048 489.28989989 -29.76274358 485.59435596 -29.75114441 481.89831543 C-29.75878815 480.80565369 -29.76643188 479.71299194 -29.77430725 478.58721924 C-29.71372632 469.85786844 -27.5015876 464.6819486 -21.37882996 458.28088379 C-16.63347043 454.92180907 -12.15383283 453.16539116 -6.35939789 453.14107609 C-5.56461989 453.13538485 -4.76984189 453.1296936 -3.95097971 453.1238299 C-2.6500306 453.12206009 -2.6500306 453.12206009 -1.32279968 453.12025452 C-0.39679883 453.1151667 0.52920201 453.11007888 1.48326349 453.10483688 C4.59368398 453.08911067 7.70408123 453.08058679 10.81452942 453.07214355 C13.04192757 453.06260511 15.26932423 453.05271395 17.49671936 453.04249573 C24.81943503 453.01110548 32.14216206 452.99084134 39.46492004 452.97229004 C40.71118227 452.96899272 41.9574445 452.9656954 43.24147224 452.96229815 C54.9977956 452.93151395 66.75412308 452.90464818 78.51047516 452.88787937 C81.23226938 452.88393017 83.95406351 452.87992714 86.67585754 452.87585449 C87.6905332 452.87434195 87.6905332 452.87434195 88.72570735 452.87279885 C99.67175454 452.85580982 110.61757495 452.81471904 121.56351155 452.7638315 C132.81409281 452.7119602 144.06456241 452.68340642 155.31527567 452.67568249 C161.6270232 452.67073179 167.93836772 452.65570538 174.25 452.61593819 C180.19268688 452.5789896 186.13474194 452.5706896 192.07752228 452.58394432 C194.25268841 452.58389051 196.42788312 452.57364974 198.60294342 452.55219269 C221.04323758 452.34274383 221.04323758 452.34274383 229.62117004 459.28088379 C234.60886588 465.5198809 236.75573984 471.27893108 236.73469543 479.25476074 C236.7346199 480.21537918 236.73454437 481.17599762 236.73446655 482.16572571 C236.72930527 483.18986069 236.72414398 484.21399567 236.71882629 485.26916504 C236.71670387 486.85666817 236.71670387 486.85666817 236.71453857 488.47624207 C236.70895164 491.84865167 236.69640148 495.22099432 236.68367004 498.59338379 C236.67865336 500.88309637 236.67409074 503.17280999 236.66999817 505.46252441 C236.65898648 511.06866696 236.6422613 516.67477059 236.62117004 522.28088379 C237.88289189 522.27535303 237.88289189 522.27535303 239.17010307 522.26971054 C259.66104077 522.18127563 280.15194545 522.11513337 300.64303398 522.0736351 C310.5524825 522.05303213 320.46180343 522.02495488 330.37117004 521.97912598 C339.01073009 521.93918882 347.6501977 521.91343452 356.28984749 521.90452981 C360.8621955 521.8993267 365.43427914 521.88714488 370.00654221 521.85796356 C374.31574434 521.83068563 378.62457478 521.82246364 382.93385506 521.82845306 C384.5099814 521.82735834 386.08612099 521.81947834 387.66217232 521.80406189 C397.75200534 521.71026003 405.74204506 522.62276157 414.43367004 528.03088379 C421.50801558 535.30735348 423.93653063 543.17614043 423.84822083 553.13195801 C423.84851288 554.00090195 423.84880493 554.86984589 423.84910583 555.76512146 C423.84771842 558.62204153 423.83218497 561.47869707 423.81648254 564.33557129 C423.81275032 566.32239642 423.80990434 568.30922339 423.8079071 570.29605103 C423.80028713 575.51404949 423.78065267 580.73193583 423.75849915 585.94989014 C423.73800547 591.27895593 423.72889786 596.60803991 423.71882629 601.93713379 C423.69740525 612.3850996 423.66328905 622.83298235 423.62117004 633.28088379 C449.85515932 633.24372988 476.08901174 633.18388785 502.32288551 633.09698105 C514.50353341 633.05715925 526.6841164 633.02478269 538.86482239 633.0098877 C549.48061661 632.99688749 560.09626822 632.96996449 570.71198213 632.92627072 C576.333768 632.90361932 581.95537773 632.88797532 587.57721329 632.88899994 C592.86811658 632.88974437 598.15862994 632.87188071 603.44943237 632.83971596 C605.39163816 632.83119383 607.33388756 632.82948266 609.27610397 632.8350811 C611.92817353 632.8417077 614.57899763 632.82383295 617.23094177 632.79986572 C617.99943628 632.80762614 618.76793079 632.81538656 619.55971301 632.82338214 C624.69599191 632.74121521 627.70825849 631.60326578 631.62117004 628.28088379 C632.79337042 624.76428268 632.75023149 622.00161158 632.75539112 618.28832436 C632.75774335 617.56880199 632.76009558 616.84927962 632.76251909 616.10795355 C632.7692169 613.67832817 632.76875064 611.24875617 632.76834106 608.81912231 C632.77163919 607.06705563 632.77536464 605.3149897 632.77948254 603.56292474 C632.78951623 598.73368584 632.79322152 593.90445937 632.79587185 589.07521152 C632.79977075 583.87266065 632.80934924 578.67011965 632.81808472 573.46757507 C632.83785892 560.89769082 632.8479157 548.32780575 632.85681251 535.75790983 C632.86119308 529.84313661 632.86656042 523.92836428 632.87180138 518.01359177 C632.88881318 498.3604609 632.903309 478.7073306 632.91055012 459.0541935 C632.9124601 453.95267359 632.91438042 448.85115368 632.91633606 443.74963379 C632.9168198 442.48163057 632.91730354 441.21362735 632.91780194 439.90719979 C632.92610843 419.35041965 632.951456 398.7936976 632.98391674 378.23694284 C633.01694826 357.14740112 633.03499526 336.05788895 633.03819436 314.9683212 C633.04036288 303.12087934 633.04916162 291.27352221 633.07465553 279.4261055 C633.09630905 269.3399387 633.10443933 259.25387722 633.09468875 249.16768982 C633.09012874 244.0187397 633.09212869 238.87000711 633.1114502 233.7210865 C633.12897337 229.01087663 633.12817303 224.30104473 633.1125529 219.59083144 C633.11016026 217.88357107 633.11458536 216.17628525 633.12638155 214.46906395 C633.14139182 212.15395343 633.13190505 209.84020113 633.11615467 207.5251255 C633.11713148 206.2376012 633.11810829 204.9500769 633.1191147 203.62353671 C632.53290851 199.68839287 631.44202278 198.04048329 628.62117004 195.28088379 C624.90724876 194.04291003 621.46027336 194.12753379 617.59170532 194.12266541 C616.76426447 194.11772743 615.93682362 194.11278945 615.0843088 194.10770184 C612.30208297 194.09230131 609.51988026 194.08395929 606.73762512 194.07556152 C604.74705806 194.06598501 602.75649304 194.05597506 600.76593018 194.04556274 C595.35307036 194.01848307 589.9402018 193.99749009 584.52731156 193.97756076 C578.87382293 193.95572009 573.22036135 193.92832202 567.56689453 193.90150452 C556.85722072 193.85155165 546.14753191 193.80662244 535.43782872 193.76348215 C523.24692123 193.71413194 511.05604088 193.6592056 498.86515963 193.60380256 C473.78385508 193.48994269 448.70252451 193.38311238 423.62117004 193.28088379 C423.62415021 193.87581949 423.62713038 194.4707552 423.63020086 195.08371925 C423.68674184 206.4384899 423.73997913 217.79318916 423.76765442 229.14807129 C423.78557231 236.46486963 423.80674621 243.78155511 423.8474884 251.0982666 C423.88013737 256.99862402 423.89803487 262.89886035 423.90580177 268.79930115 C423.9113353 271.04790655 423.92214092 273.29650549 423.93836021 275.5450592 C423.96020771 278.6999838 423.96313386 281.85441107 423.96174622 285.00939941 C423.97792496 286.3969191 423.97792496 286.3969191 423.99443054 287.81246948 C423.95280209 296.58677094 421.61174317 303.0157262 415.59382629 309.51916504 C409.88360346 314.61878978 403.47912728 316.40681432 395.95840454 316.40113831 C394.93775509 316.40241994 394.93775509 316.40241994 393.89648646 316.40372747 C391.61173524 316.40537732 389.3270571 316.39986899 387.04231262 316.39440918 C385.40642295 316.39412718 383.77053315 316.3942853 382.13464355 316.39485168 C377.68867096 316.39513914 373.24272523 316.38925073 368.79675889 316.38227773 C364.15226772 316.37603562 359.50777597 316.37543971 354.86328125 316.37425232 C346.06604893 316.37114154 337.268829 316.36293155 328.47160214 316.35290283 C318.45721452 316.34173385 308.44282631 316.33622926 298.42843401 316.33120739 C277.82600577 316.32074874 257.22358869 316.30315418 236.62117004 316.28088379 C236.6311628 317.15292702 236.6311628 317.15292702 236.64135742 318.04258728 C236.70803922 324.12643876 236.75310622 330.21018539 236.78596497 336.29431152 C236.80099512 338.56095603 236.82142486 340.82757173 236.8474884 343.09411621 C236.88412592 346.36347591 236.90095464 349.63244905 236.91413879 352.90197754 C236.93736458 354.4072123 236.93736458 354.4072123 236.96105957 355.94285583 C236.9631312 364.72258131 235.49062308 372.19551157 229.36726379 378.77697754 C224.34601664 383.10176536 218.22469365 385.40021996 211.62179947 385.41231155 C210.83152147 385.4161527 210.04124346 385.41999384 209.22701764 385.42395139 C207.93364865 385.42265166 207.93364865 385.42265166 206.614151 385.42132568 C205.69349499 385.42429681 204.77283899 385.42726793 203.82428432 385.43032908 C200.73215634 385.43901672 197.64006708 385.44052439 194.54792786 385.4420166 C192.33374448 385.44664473 190.1195619 385.45166938 187.90538025 385.45706177 C181.88461112 385.47018828 175.86385314 385.47663122 169.84307194 385.48107243 C166.08205833 385.48400274 162.32104778 385.48810747 158.56003571 385.4925766 C148.14233175 385.50468525 137.72462994 385.51506737 127.3069191 385.51845169 C126.64039194 385.51867126 125.97386477 385.51889082 125.28713982 385.51911704 C124.61903765 385.51933532 123.95093548 385.5195536 123.26258779 385.51977849 C121.90880791 385.52022195 120.55502804 385.52066852 119.20124817 385.52111816 C118.52972972 385.52133959 117.85821127 385.52156102 117.16634378 385.52178916 C106.2888076 385.52573599 95.41133846 385.54318707 84.53382817 385.56647769 C73.36010138 385.59020898 62.18639901 385.60239653 51.01264453 385.60381961 C44.7413997 385.60486799 38.47024944 385.61078292 32.19902802 385.62863922 C26.2991631 385.64511119 20.39946391 385.64727955 14.4995842 385.63850021 C12.3356596 385.63772938 10.17172612 385.64207867 8.00782394 385.65195847 C5.05039326 385.66466805 2.09355043 385.65880628 -0.86387634 385.64837646 C-1.71719945 385.65643287 -2.57052255 385.66448927 -3.44970393 385.67278981 C-11.56825185 385.60597407 -17.87458688 383.3784674 -23.90617371 377.82775879 C-28.34197667 373.16840077 -29.49505417 368.58889056 -29.52600098 362.33599854 C-29.53315628 361.34077682 -29.54031158 360.34555511 -29.54768372 359.32017517 C-29.55037262 358.23438675 -29.55306152 357.14859833 -29.55583191 356.02990723 C-29.56240311 354.88149857 -29.5689743 353.7330899 -29.57574463 352.54988098 C-29.59546705 348.74667292 -29.6071375 344.94350432 -29.61711121 341.14025879 C-29.62118673 339.84103737 -29.62526226 338.54181595 -29.62946129 337.20322418 C-29.64816718 331.03626177 -29.66273443 324.8693191 -29.67107326 318.70233417 C-29.68084044 311.59748996 -29.70715109 304.49295773 -29.74757415 297.38822341 C-29.78143882 291.2234035 -29.79322359 285.0587142 -29.79727745 278.89380646 C-29.80214739 276.27677545 -29.81377286 273.65974787 -29.83231544 271.04277802 C-29.85666925 267.37807906 -29.85574817 263.71419363 -29.84880066 260.04943848 C-29.86161072 258.97174698 -29.87442078 257.89405548 -29.88761902 256.78370667 C-29.8351913 249.1843491 -28.50629485 243.98225461 -23.48429871 238.03869629 C-22.85136902 237.49986816 -22.21843933 236.96104004 -21.56632996 236.40588379 C-20.62853699 235.57443848 -20.62853699 235.57443848 -19.67179871 234.72619629 C-13.83092496 231.04455526 -7.66890292 230.99067908 -0.97981262 231.02018738 C-0.05321535 231.01636183 0.87338191 231.01253628 1.82805789 231.00859481 C4.92240224 230.99830405 8.01655969 231.00224952 11.11091614 231.00622559 C13.33377249 231.00187694 15.55662735 230.99669328 17.77947998 230.99073792 C23.81048606 230.97735299 29.84142945 230.97676871 35.87244749 230.97930121 C40.90971589 230.98037129 45.94697163 230.97548661 50.98423731 230.97069579 C63.54875644 230.95896821 76.11323723 230.95982469 88.67775579 230.9662526 C99.57706324 230.97142058 110.47628129 230.96016808 121.37557106 230.94115438 C132.57991583 230.92175909 143.78421951 230.91381413 154.98858511 230.91727763 C161.27378245 230.91908987 167.55889791 230.91646019 173.84408188 230.9025631 C179.75549074 230.88998143 185.66672077 230.89193224 191.57812691 230.90497398 C193.74485523 230.90733857 195.91159614 230.90460932 198.07831001 230.89635086 C201.04180848 230.88587191 204.00470816 230.89399355 206.96818542 230.90666199 C208.2465677 230.89560056 208.2465677 230.89560056 209.55077589 230.88431567 C216.4188065 230.9458508 222.37947488 232.43901154 228.37117004 235.84338379 C233.72201064 241.64012777 236.75629592 249.09506611 236.73469543 256.9576416 C236.7346199 257.87829407 236.73454437 258.79894653 236.73446655 259.74749756 C236.72930527 260.73304626 236.72414398 261.71859497 236.71882629 262.73400879 C236.71670387 264.2570462 236.71670387 264.2570462 236.71453857 265.81085205 C236.70894521 269.05089271 236.69639389 272.29086404 236.68367004 275.53088379 C236.67865419 277.72879946 236.67409143 279.92671621 236.66999817 282.12463379 C236.65897795 287.51007407 236.64224638 292.89547398 236.62117004 298.28088379 C257.65708096 298.22037379 278.69286827 298.14289125 299.72864056 298.04516888 C309.4957846 298.00019158 319.26289202 297.96078138 329.03010559 297.93444824 C337.54260248 297.91148382 346.05498367 297.87810324 354.56738883 297.83218223 C359.07520348 297.80822899 363.5829034 297.789514 368.09078026 297.78326988 C372.3335202 297.77722851 376.57596649 297.75726312 380.81859779 297.72660828 C382.37581978 297.71781282 383.93308011 297.71410859 385.49032593 297.71587563 C387.61714083 297.71752702 389.74305907 297.70084219 391.86975098 297.67961121 C393.05978572 297.67500224 394.24982046 297.67039328 395.47591686 297.66564465 C398.96381815 297.23896742 400.8573577 296.4275691 403.62117004 294.28088379 C404.84564648 290.60745448 404.76596052 287.22392508 404.76161194 283.3989563 C404.76458306 282.58729393 404.76755418 281.77563157 404.77061534 280.93937337 C404.77931082 278.21026363 404.7808113 275.48119771 404.78230286 272.7520752 C404.78693038 270.79917812 404.79195495 268.84628195 404.79734802 266.89338684 C404.81047923 261.58141505 404.81691824 256.2694559 404.82135868 250.95747042 C404.82428788 247.64055364 404.82839237 244.32364034 404.83286285 241.00672531 C404.84653889 230.63395123 404.85620537 220.26118506 404.86006474 209.88840258 C404.86454769 197.90480552 404.88210616 185.9213224 404.91106534 173.93776 C404.93266098 164.68079538 404.94276787 155.42386288 404.94410586 146.16687334 C404.94515529 140.63514668 404.95109255 135.10352712 404.96892548 129.57182693 C404.98536982 124.36963728 404.98757936 119.16763564 404.97878647 113.96542931 C404.97801418 112.05502889 404.98238402 110.14461852 404.99224472 108.23424339 C405.0049085 105.62819625 404.99911795 103.02282062 404.98866272 100.41677856 C404.99671912 99.65909042 405.00477553 98.90140228 405.01307607 98.12075388 C404.97118976 93.66315128 404.39579546 90.80891087 401.62117004 87.28088379 C398.02031737 84.88031534 396.39344646 85.02228646 392.11026001 85.00241089 C391.44616125 84.99661849 390.7820625 84.99082608 390.09783953 84.98485816 C387.86834414 84.96782716 385.63905536 84.96497905 383.40950012 84.96203613 C381.81301362 84.95274008 380.21653198 84.94257189 378.62005615 84.93159485 C374.28153955 84.90424434 369.9430555 84.88913051 365.60447526 84.87616682 C361.07205349 84.86055834 356.53969843 84.83376088 352.00732422 84.80813599 C343.4226187 84.7613077 334.83790068 84.72458322 326.25313252 84.69146311 C316.48053541 84.65327031 306.70800523 84.60385273 296.9354645 84.55347896 C276.83074908 84.45009888 256.7259913 84.36085826 236.62117004 84.28088379 C236.6311628 85.15292702 236.6311628 85.15292702 236.64135742 86.04258728 C236.70803922 92.12643876 236.75310622 98.21018539 236.78596497 104.29431152 C236.80099512 106.56095603 236.82142486 108.82757173 236.8474884 111.09411621 C236.88412592 114.36347591 236.90095464 117.63244905 236.91413879 120.90197754 C236.92962265 121.90546738 236.94510651 122.90895721 236.96105957 123.94285583 C236.96301214 132.21797031 235.50764769 140.11388787 230.19905853 146.72377872 C221.13339169 155.67003561 208.38400789 153.98046166 196.62312317 153.9119873 C194.38173863 153.91713002 192.14035814 153.92441395 189.89898682 153.93367004 C183.8307662 153.95214704 177.76298631 153.93926843 171.69478416 153.91957974 C165.33466986 153.90316158 158.97458277 153.91201056 152.61445618 153.917099 C141.9351348 153.9216164 131.25600681 153.90587709 120.57673645 153.87780762 C109.60628474 153.84897349 98.63608286 153.8418884 87.66560364 153.8572998 C74.4204356 153.87588142 61.17541536 153.87410177 47.93023682 153.85508537 C42.88102123 153.84822528 37.83189857 153.84923669 32.78268433 153.85663033 C26.83339757 153.86430953 20.8844693 153.85211315 14.93524361 153.82478142 C12.75604376 153.81791373 10.57681034 153.81778219 8.39761162 153.82499695 C5.41472849 153.83373218 2.43294141 153.8176664 -0.54985046 153.79554749 C-1.40492801 153.80378825 -2.26000556 153.81202902 -3.14099455 153.82051951 C-10.34267537 153.72246935 -17.13674024 151.89429905 -22.81632996 147.31604004 C-23.58976746 146.3395752 -23.58976746 146.3395752 -24.37882996 145.34338379 C-24.91507996 144.69498535 -25.45132996 144.04658691 -26.00382996 143.37854004 C-28.59380798 139.42735198 -29.6275678 135.92953052 -29.65298462 131.22247314 C-29.66295975 130.22732193 -29.67293488 129.23217072 -29.68321228 128.2068634 C-29.68387695 127.1262413 -29.68454163 126.0456192 -29.68522644 124.93225098 C-29.69354996 123.78530258 -29.70187347 122.63835419 -29.71044922 121.45664978 C-29.73455105 117.6636516 -29.74332207 113.87082543 -29.74992371 110.07775879 C-29.75889045 107.43845569 -29.7680123 104.79915312 -29.77728271 102.15985107 C-29.79463716 96.62515625 -29.80150633 91.09050517 -29.80436707 85.55578613 C-29.80799842 79.17488887 -29.83786865 72.79447375 -29.87977165 66.41372371 C-29.9187616 60.25902574 -29.92996189 54.10456077 -29.93109322 47.94974518 C-29.93529365 45.33911781 -29.94772067 42.72848997 -29.96861076 40.11794281 C-29.99554589 36.46056998 -29.99069148 32.80451699 -29.97819519 29.14709473 C-29.99302948 28.07456955 -30.00786377 27.00204437 -30.02314758 25.89701843 C-29.94551633 17.89483325 -27.91564404 12.04655055 -22.38664246 6.15979004 C-21.76531433 5.72537598 -21.14398621 5.29096191 -20.50382996 4.84338379 C-19.88765808 4.39092285 -19.27148621 3.93846191 -18.63664246 3.47229004 C-12.5661323 0.26899316 -6.71681743 -0.0136193 0 0 Z " fill="#D5A121" transform="translate(183.3788299560547,104.7191162109375)"/>
<path d="M0 0 C0.828851 -0.00382555 1.657702 -0.00765109 2.5116697 -0.01159257 C5.29300538 -0.02192322 8.07413465 -0.0179303 10.85548401 -0.01396179 C12.84793794 -0.01830822 14.8403902 -0.02349114 16.83283997 -0.02944946 C22.24807416 -0.0428579 27.66323864 -0.04341609 33.0784862 -0.04088616 C37.59654812 -0.03981774 42.11459585 -0.04469651 46.63265473 -0.04949158 C57.28978696 -0.06059308 67.94688395 -0.06102051 78.60401917 -0.05497742 C89.60466205 -0.04893554 100.60517711 -0.06125264 111.60579818 -0.08254749 C121.0453776 -0.10014978 130.48491627 -0.10616703 139.92451149 -0.10290974 C145.56464332 -0.10109461 151.20468395 -0.10375604 156.84480095 -0.11762428 C162.14796977 -0.13017572 167.45093895 -0.12828395 172.75410461 -0.11521339 C174.70159026 -0.11284223 176.64908984 -0.11560153 178.59655952 -0.12383652 C181.25292013 -0.13426005 183.90860539 -0.1262388 186.56494141 -0.11352539 C187.33751122 -0.12089968 188.11008104 -0.12827396 188.90606207 -0.13587171 C193.40076765 -0.09054497 196.26997368 0.48977434 199.84596252 3.26069641 C202.56839278 6.8151553 203.21326111 9.34521388 203.13893127 13.78022766 C203.12926331 14.80180969 203.11959534 15.82339172 203.1096344 16.87593079 C203.08449768 17.93102844 203.05936096 18.9861261 203.03346252 20.07319641 C203.01992737 21.14763 203.00639221 22.2220636 202.9924469 23.32905579 C202.9571883 25.97345096 202.90790619 28.61681389 202.84596252 31.26069641 C203.41115097 31.25403458 203.97633942 31.24737274 204.55865479 31.24050903 C210.44725347 31.17407917 216.33574549 31.12886409 222.22462463 31.09590149 C224.42160873 31.0808259 226.61856279 31.06036215 228.81544495 31.03437805 C231.97543252 30.99794139 235.13502177 30.98095757 238.29518127 30.96772766 C239.76576241 30.94450188 239.76576241 30.94450188 241.26605225 30.92080688 C249.91052574 30.91867911 249.91052574 30.91867911 253.84596252 34.26069641 C255.8938598 37.33254232 256.09898549 37.97881976 256.12062073 41.44648743 C256.13015274 42.28909622 256.13968475 43.13170502 256.14950562 43.99984741 C256.1481385 45.36840126 256.1481385 45.36840126 256.14674377 46.76460266 C256.1510289 47.71648972 256.15531403 48.66837677 256.159729 49.64910889 C256.16548058 51.67417101 256.1659665 53.6992538 256.16163635 55.72431946 C256.15852764 58.75961474 256.18174333 61.79388484 256.20729065 64.82905579 C256.2471393 76.95324019 255.34618368 88.39525318 252.84596252 100.26069641 C252.65252258 101.1924469 252.45908264 102.12419739 252.25978088 103.08418274 C251.78259502 105.20628012 251.25066819 107.29311443 250.65846252 109.38569641 C250.45269592 110.11522522 250.24692932 110.84475403 250.03492737 111.59638977 C246.51504348 123.35259895 240.88115911 133.98004435 232.84596252 143.26069641 C231.76315002 144.74569641 231.76315002 144.74569641 230.65846252 146.26069641 C220.44873342 158.23301718 204.03908631 165.43633366 188.84596252 168.26069641 C183.84095655 168.65347649 178.85708172 168.51335788 173.84596252 168.26069641 C173.53272034 169.29710266 173.53272034 169.29710266 173.21315002 170.35444641 C171.41714184 174.17224667 168.88336966 176.75051062 165.97096252 179.76069641 C164.90951188 180.87379915 163.84958775 181.98835979 162.79127502 183.10444641 C162.28628479 183.6342511 161.78129456 184.16405579 161.26100159 184.70991516 C159.96339456 186.13199932 158.76921366 187.64668457 157.58815002 189.16694641 C157.01322815 189.85788391 156.43830627 190.54882141 155.84596252 191.26069641 C155.18596252 191.26069641 154.52596252 191.26069641 153.84596252 191.26069641 C153.84596252 191.92069641 153.84596252 192.58069641 153.84596252 193.26069641 C152.00221252 194.96772766 152.00221252 194.96772766 149.34596252 197.07319641 C148.35467346 197.8711261 147.3633844 198.66905579 146.34205627 199.49116516 C144.50792281 200.95024424 142.66730164 202.40001833 140.81910706 203.84126282 C139.39083918 204.9552002 137.96623941 206.07385533 136.54518127 207.19697571 C135.14820626 208.30105205 133.74349968 209.39543355 132.33033752 210.47871399 C126.4730366 215.12513059 123.04769055 219.69209341 121.84596252 227.26069641 C121.63254694 230.75855987 121.65580474 234.25685584 121.65846252 237.76069641 C121.65854309 238.7430426 121.65862366 239.72538879 121.65870667 240.73750305 C121.71644935 248.11823329 122.43743385 255.01242843 123.84596252 262.26069641 C124.18923592 264.59258812 124.52478633 266.92565864 124.84596252 269.26069641 C125.98033752 269.21429016 127.11471252 269.16788391 128.28346252 269.12007141 C144.18283148 268.65467243 144.18283148 268.65467243 149.84596252 273.26069641 C155.80376957 279.13121669 157.53708082 285.98559068 159.2893219 293.97969055 C159.72339148 295.95927369 160.18441103 297.93104448 160.65065002 299.90327454 C163.04157911 310.30488342 163.04157911 310.30488342 162.84596252 315.26069641 C164.39283752 315.16788391 164.39283752 315.16788391 165.97096252 315.07319641 C170.15799579 315.27579479 172.35510585 315.98758044 175.84596252 318.26069641 C178.01818631 320.90514276 177.84489573 322.29056659 177.72096252 325.76069641 C176.77162025 329.55806552 175.87343961 330.87541143 172.84596252 333.26069641 C170.08552515 334.6409151 167.8520516 334.3994015 164.76142883 334.41459656 C163.46315659 334.42319702 162.16488434 334.43179749 160.82727051 334.44065857 C159.38005106 334.44509397 157.93283118 334.44939231 156.48561096 334.4535675 C154.96797497 334.46146744 153.45034086 334.46973632 151.93270874 334.47834778 C146.94026995 334.50458193 141.94782272 334.51987745 136.95533752 334.53413391 C135.23743433 334.53949314 133.51953119 334.54487065 131.80162811 334.55026627 C124.65579328 334.57189762 117.50996071 334.59063442 110.36410141 334.60188866 C100.11990422 334.61812799 89.87608634 334.65130223 79.63203216 334.7082895 C72.43110832 334.74698322 65.23028595 334.7665207 58.02926087 334.77180922 C53.72752841 334.77546368 49.42620037 334.78749439 45.12458038 334.81991196 C41.07628163 334.84998262 37.02863219 334.85630834 32.98024559 334.8445282 C31.49596169 334.84430737 30.01164775 334.85262025 28.52746773 334.87018204 C15.91601176 335.01126249 15.91601176 335.01126249 11.96589661 331.86680603 C9.16550588 328.4241871 8.95305804 326.70614612 9.26783752 322.42085266 C10.04257053 319.52607326 11.5297923 317.76834403 13.97877502 316.05757141 C17.32724316 314.62851806 20.25475348 314.95110942 23.84596252 315.26069641 C24.00645081 313.65388 24.00645081 313.65388 24.17018127 312.01460266 C24.88772547 306.30566523 26.27345808 300.7760183 27.65846252 295.19819641 C27.90660706 294.148255 28.15475159 293.0983136 28.41041565 292.01655579 C30.48069406 283.64588811 33.01959116 276.94933921 39.84596252 271.26069641 C44.87874401 269.08334035 49.34951141 269.0173424 54.72096252 269.13569641 C55.50471252 269.14471985 56.28846252 269.15374329 57.09596252 269.16304016 C59.01276307 269.18641578 60.92940443 269.22227988 62.84596252 269.26069641 C63.16266905 267.61566736 63.47405353 265.96961364 63.78346252 264.32319641 C63.95748596 263.40667297 64.1315094 262.49014954 64.31080627 261.54585266 C68.23269133 238.04427028 68.23269133 238.04427028 61.84596252 216.26069641 C58.10964484 212.51873475 54.08344502 209.39685301 49.84596252 206.26069641 C48.1314801 204.91432345 46.42268985 203.56065531 44.72096252 202.19819641 C43.91529846 201.55624329 43.1096344 200.91429016 42.27955627 200.25288391 C37.99195482 196.7429694 33.89703168 193.03953372 29.84596252 189.26069641 C29.07123596 188.54011047 28.2965094 187.81952454 27.49830627 187.07710266 C21.36673018 181.1769068 21.36673018 181.1769068 19.17408752 177.31929016 C16.1463117 171.77673906 16.1463117 171.77673906 10.88356018 168.66352844 C6.85588489 168.00148096 2.8200234 167.83182479 -1.25169373 167.62788391 C-17.23021906 166.74936097 -30.96275338 158.10526259 -42.15403748 147.26069641 C-42.76892029 146.73089172 -43.3838031 146.20108704 -44.01731873 145.65522766 C-60.94112854 130.5210621 -67.26281004 103.89429512 -69.15403748 82.26069641 C-69.31449685 78.81802435 -69.36404413 75.37864127 -69.39231873 71.93257141 C-69.40039047 70.98053833 -69.40846222 70.02850525 -69.41677856 69.04762268 C-69.43051427 67.05095692 -69.44128266 65.05426871 -69.44920349 63.05757141 C-69.46080062 61.01908978 -69.48137199 58.98064028 -69.51072693 56.94233704 C-69.55328967 53.98054101 -69.56954711 51.01963472 -69.57981873 48.05757141 C-69.59732681 47.14916504 -69.6148349 46.24075867 -69.63287354 45.30482483 C-69.61875456 41.19549972 -69.51429222 38.86645113 -67.37742615 35.27339172 C-63.89746441 32.12319907 -61.2583919 31.00730116 -56.56907654 31.03364563 C-55.66844482 31.03379669 -54.76781311 31.03394775 -53.83988953 31.03410339 C-52.39437714 31.04958725 -52.39437714 31.04958725 -50.91966248 31.06538391 C-49.42991913 31.06962875 -49.42991913 31.06962875 -47.91007996 31.07395935 C-44.74127603 31.08514498 -41.57275582 31.11024679 -38.40403748 31.13569641 C-36.25430198 31.14572829 -34.10456204 31.15485378 -31.95481873 31.16304016 C-26.68779501 31.185079 -21.42093652 31.21854057 -16.15403748 31.26069641 C-16.17498474 30.63090881 -16.19593201 30.00112122 -16.21751404 29.35224915 C-16.30123846 26.4677307 -16.35287369 23.58346873 -16.40403748 20.69819641 C-16.4375531 19.70755188 -16.47106873 18.71690735 -16.50559998 17.69624329 C-16.59042138 11.31343291 -16.08705068 7.38323984 -12.15403748 2.26069641 C-8.45777975 -0.38241393 -4.35998814 -0.02126716 0 0 Z " fill="#D6A21C" transform="translate(1143.154037475586,339.7393035888672)"/>
<path d="M0 0 C60.39 0 120.78 0 183 0 C183 116.43426883 183 116.43426883 148.54296875 152.31640625 C145.93306964 155.00525395 145.93306964 155.00525395 143.4765625 158.0859375 C141.18617718 160.78093348 138.95130816 162.87321574 136.1875 165.0625 C135.23875 165.82433594 134.29 166.58617187 133.3125 167.37109375 C131.55215641 168.77013225 129.78976834 170.16657217 128.02734375 171.56298828 C125.90960517 173.24480918 123.79862299 174.93488622 121.6875 176.625 C121.01807373 177.15101807 120.34864746 177.67703613 119.65893555 178.21899414 C114.04890905 182.71358495 109.07153792 187.41133106 106 194 C101.45943197 194.26200753 96.92080597 194.42142326 92.375 194.5625 C91.08980469 194.63791016 89.80460937 194.71332031 88.48046875 194.79101562 C79.10238592 195.00967559 79.10238592 195.00967559 75.98242188 192.15209961 C74.4921875 189.8125 74.4921875 189.8125 73.21923828 187.33227539 C71.40399949 183.85991333 68.78474162 181.82808997 65.75 179.4375 C65.1835376 178.97408203 64.6170752 178.51066406 64.03344727 178.03320312 C60.69958881 175.31613432 57.31223687 172.66598761 53.9375 170 C26.26247774 147.98577775 8.92609655 120.63048275 2 86 C-0.85321119 57.46788812 0 28.67441756 0 0 Z " fill="#FBFBFA" transform="translate(1145,358)"/>
<path d="M0 0 C0.90306051 -0.0055344 1.80612102 -0.01106879 2.73654699 -0.0167709 C5.76918215 -0.03040794 8.80099867 -0.01539149 11.83361816 -0.00050354 C14.00503388 -0.0042856 16.17644719 -0.0097847 18.34785461 -0.01687622 C24.25069281 -0.03086276 30.15324057 -0.01963847 36.0560627 -0.00316501 C42.22683071 0.0106627 48.39758147 0.00422802 54.56835938 0.0007019 C64.93205458 -0.00200202 75.29563408 0.01149112 85.65930176 0.03465271 C97.64952195 0.06126358 109.63945647 0.06301022 121.62970304 0.05126435 C133.15312907 0.04049362 144.67648495 0.04666811 156.1999054 0.06081963 C161.10892897 0.06658554 166.01790132 0.06649198 170.92692566 0.06175423 C176.70533727 0.05698988 182.4835364 0.06706378 188.26190758 0.08870888 C190.38557404 0.09428429 192.5092609 0.09473517 194.63292885 0.08975601 C197.52611269 0.08382223 200.41864273 0.0962718 203.31176758 0.11352539 C204.15728731 0.10751535 205.00280704 0.1015053 205.87394857 0.09531313 C209.15354016 0.13101359 211.70828929 0.2815832 214.67731571 1.73840237 C216.5680834 3.99264493 216.65634191 5.16823995 216.65708923 8.09373474 C216.66692337 9.03590851 216.67675751 9.97808228 216.68688965 10.94880676 C216.67722168 11.98059052 216.66755371 13.01237427 216.65759277 14.07542419 C216.66569725 15.70745285 216.66569725 15.70745285 216.67396545 17.37245178 C216.68649899 20.97814421 216.66993019 24.58304538 216.65197754 28.18870544 C216.65213242 30.68829897 216.65361955 33.18789274 216.65638733 35.68748474 C216.6577734 40.92984207 216.6456104 46.17199327 216.62243652 51.41429138 C216.59582624 57.47593437 216.59407937 63.53719462 216.60582489 69.598876 C216.61660265 75.42896908 216.61031517 81.25892223 216.59626961 87.08900452 C216.59174439 89.57058814 216.5914276 92.05218303 216.59533501 94.5337677 C216.59823634 97.99841102 216.58179107 101.46242301 216.55993652 104.92698669 C216.566689 106.47466232 216.566689 106.47466232 216.57357788 108.05360413 C216.56367325 108.99577789 216.55376862 109.93795166 216.54356384 110.90867615 C216.539919 112.13757317 216.539919 112.13757317 216.53620052 113.39129639 C216.05527689 116.05934917 215.24125557 116.8103468 213.15588379 118.50120544 C210.15171524 118.79629131 207.35479585 118.90562809 204.34936523 118.88215637 C203.43828648 118.88683634 202.52720773 118.89151632 201.58852053 118.89633811 C198.52293806 118.90834388 195.45779803 118.89880906 192.39221191 118.88938904 C190.1996179 118.89345226 188.00702593 118.89879272 185.81443787 118.90531921 C179.84967748 118.91902829 173.88507227 118.91367932 167.92030907 118.90418196 C161.68767239 118.89660395 155.45504929 118.90362578 149.22241211 118.90834045 C138.08327661 118.91415368 126.94419824 118.90481152 115.80507642 118.88956244 C105.70111124 118.87615879 95.59724945 118.87848675 85.49328613 118.89231873 C73.76567348 118.90836586 62.03811122 118.91435328 50.31048727 118.90548193 C44.10032257 118.90079691 37.89022913 118.9002033 31.68006897 118.9100914 C25.8425898 118.9187363 20.00530652 118.9127845 14.16784859 118.89540863 C12.02118315 118.89143053 9.87450132 118.89260031 7.72784233 118.89919662 C4.80580391 118.90734995 1.88439994 118.89716591 -1.03759766 118.88215637 C-1.89449424 118.88884854 -2.75139083 118.8955407 -3.63425398 118.90243566 C-9.42111916 118.84446297 -9.42111916 118.84446297 -11.56056124 117.10832888 C-13.26739121 114.97122801 -13.22365019 113.67082842 -13.23179626 110.95336914 C-13.2417009 110.02105469 -13.25160553 109.08874023 -13.2618103 108.12817383 C-13.25730865 107.10731186 -13.25280701 106.08644989 -13.24816895 105.03465271 C-13.2550322 103.95799347 -13.26189545 102.88133423 -13.26896667 101.77204895 C-13.28730712 98.20377003 -13.2833867 94.63592775 -13.27770996 91.06761169 C-13.28226831 88.59283301 -13.28757284 86.11805559 -13.29359436 83.64328003 C-13.30253976 78.45223351 -13.30008605 73.26134072 -13.29016113 68.07029724 C-13.27867055 61.41064099 -13.29887719 54.75171947 -13.32807827 48.092103 C-13.34640506 42.98006812 -13.34615479 37.86816109 -13.34044075 32.75610161 C-13.3402871 30.30045262 -13.34636729 27.84479519 -13.35873222 25.38917732 C-13.37357315 21.95816203 -13.36301488 18.52813656 -13.3458252 15.09715271 C-13.35549316 14.07831497 -13.36516113 13.05947723 -13.37512207 12.00976562 C-13.36528793 11.07463135 -13.3554538 10.13949707 -13.34532166 9.17602539 C-13.34511237 8.36505685 -13.34490309 7.55408831 -13.34468746 6.71854496 C-11.76129391 -0.29528389 -6.07923639 -0.06905942 0 0 Z " fill="#FCFBFB" transform="translate(184.8441162109375,575.4987945556641)"/>
<path d="M0 0 C0.90784963 -0.00467997 1.81569925 -0.00935994 2.75105947 -0.01418173 C5.79971769 -0.02616856 8.84792946 -0.01666005 11.89659119 -0.00723267 C14.07948062 -0.01129669 16.262368 -0.01663762 18.44525146 -0.02316284 C24.37896221 -0.03686145 30.31251682 -0.03152745 36.24623036 -0.02202559 C42.44816469 -0.01444315 48.65008543 -0.02147056 54.85202026 -0.02618408 C65.9345121 -0.03199539 77.01693467 -0.02265925 88.09941541 -0.00740607 C98.15163427 0.00600063 108.2037492 0.00366649 118.25596619 -0.01016235 C129.9260929 -0.0261532 141.59615457 -0.03219721 153.26629061 -0.02332556 C159.4451414 -0.01864095 165.62392057 -0.0180459 171.8027668 -0.02793503 C177.60989089 -0.0365797 183.41681808 -0.03062855 189.22392082 -0.01325226 C191.35929919 -0.00927422 193.49469403 -0.01044383 195.63006592 -0.01704025 C198.5367253 -0.02519372 201.4427469 -0.01500943 204.34936523 0 C205.20168875 -0.00669217 206.05401227 -0.01338433 206.93216377 -0.02027929 C212.68812131 0.03768812 212.68812131 0.03768812 214.82648516 1.77267683 C216.54240916 3.92077679 216.49076894 5.24183655 216.49887085 7.97348022 C216.50877548 8.91565399 216.51868011 9.85782776 216.52888489 10.82855225 C216.52438324 11.860336 216.51988159 12.89211975 216.51524353 13.95516968 C216.52210678 15.04318878 216.52897003 16.13120789 216.53604126 17.25219727 C216.55438075 20.85774694 216.55046176 24.46286451 216.54478455 28.06845093 C216.54934261 30.56804548 216.55464705 33.06763877 216.56066895 35.56723022 C216.56961389 40.80953934 216.56739355 46.05173567 216.55723572 51.29403687 C216.5457498 57.35573189 216.55983639 63.41698473 216.58663219 69.47862148 C216.61144038 75.30870779 216.61397098 81.13862162 216.60751534 86.96875 C216.60736157 89.45034521 216.61345105 91.93194873 216.62580681 94.41351318 C216.64062719 97.87825765 216.63010517 101.34201921 216.61289978 104.80673218 C216.62740173 106.35440781 216.62740173 106.35440781 216.64219666 107.93334961 C216.62744545 109.34661026 216.62744545 109.34661026 216.61239624 110.78842163 C216.61218696 111.60768631 216.61197767 112.42695099 216.61176205 113.27104187 C216.1111908 115.38095093 216.1111908 115.38095093 214.63262272 117.14375401 C210.9214643 118.96471682 207.31280875 118.7973885 203.26707458 118.76863098 C202.36401408 118.77401652 201.46095357 118.77940206 200.53052759 118.78495079 C197.49803278 118.79928288 194.46597126 118.7921137 191.43345642 118.78500366 C189.26204069 118.79070444 187.09062795 118.79766755 184.91921997 118.80580139 C179.01644091 118.8237791 173.11381013 118.82255587 167.21101189 118.81685901 C162.28774199 118.81377417 157.36450087 118.81985166 152.44123507 118.82589775 C140.83005676 118.8399562 129.21895201 118.83837038 117.60777283 118.82699585 C105.61752654 118.81550975 93.62759523 118.82959557 81.63737154 118.85639232 C71.35194714 118.87852084 61.06659305 118.88519323 50.78114653 118.87931591 C44.63409289 118.87593874 38.48718261 118.87841193 32.34014893 118.89556694 C26.56170641 118.91098885 20.78359617 118.90713335 15.00516701 118.8882618 C12.88149392 118.88456289 10.75779646 118.887722 8.63414574 118.89814758 C5.7408118 118.91127001 2.84859214 118.89988784 -0.04469299 118.88215637 C-0.89021272 118.89176138 -1.73573245 118.90136639 -2.60687399 118.91126245 C-6.17310279 118.86612025 -8.4365378 118.69295563 -11.40982056 116.64180183 C-13.09327697 114.06839198 -13.39106915 112.75761188 -13.39674377 109.70613098 C-13.40802307 108.7709967 -13.41930237 107.83586243 -13.43092346 106.87239075 C-13.42282654 105.85355301 -13.41472961 104.83471527 -13.40638733 103.78500366 C-13.41339661 102.7065921 -13.42040588 101.62818054 -13.42762756 100.51708984 C-13.44524566 96.94931357 -13.43357142 93.38232914 -13.4200592 89.81454468 C-13.4227528 87.33879951 -13.42663412 84.86305538 -13.43165588 82.38731384 C-13.43755597 77.19799734 -13.4289704 72.00895615 -13.41029358 66.81967163 C-13.38749208 60.1587838 -13.40063164 53.49880867 -13.42458344 46.83790493 C-13.43901719 41.72589741 -13.43444667 36.61404339 -13.42407227 31.50203133 C-13.42139891 29.04556261 -13.424696 26.58908007 -13.43399048 24.13262749 C-13.44411709 20.70387563 -13.42870871 17.27617681 -13.40638733 13.84750366 C-13.41448425 12.82664169 -13.42258118 11.80577972 -13.43092346 10.75398254 C-13.41964417 9.82166809 -13.40836487 8.88935364 -13.39674377 7.92878723 C-13.39523567 7.11819571 -13.39372757 6.3076042 -13.39217377 5.4724493 C-12.8888092 3.38095093 -12.8888092 3.38095093 -11.41261387 1.62052059 C-7.68811837 -0.2087698 -4.06066416 -0.03196667 0 0 Z " fill="#FCFBFA" transform="translate(184.88880920410156,353.6190490722656)"/>
<path d="M0 0 C0.91107875 -0.00467997 1.82215751 -0.00935994 2.76084471 -0.01418173 C5.82642717 -0.02618751 8.89156721 -0.01665269 11.95715332 -0.00723267 C14.14974733 -0.01129588 16.3423393 -0.01663635 18.53492737 -0.02316284 C24.49968776 -0.03687192 30.46429297 -0.03152295 36.42905617 -0.02202559 C42.66169284 -0.01444758 48.89431594 -0.02146941 55.12695312 -0.02618408 C66.26608863 -0.03199731 77.40516699 -0.02265515 88.54428881 -0.00740607 C98.648254 0.00599758 108.75211579 0.00366963 118.8560791 -0.01016235 C130.58369175 -0.02620949 142.31125402 -0.03219691 154.03887796 -0.02332556 C160.24904266 -0.01864054 166.4591361 -0.01804693 172.66929626 -0.02793503 C178.50677543 -0.03657993 184.34405871 -0.03062812 190.18151665 -0.01325226 C192.32818208 -0.00927415 194.47486391 -0.01044394 196.6215229 -0.01704025 C199.54356133 -0.02519358 202.4649653 -0.01500953 205.38696289 0 C206.67230777 -0.01003825 206.67230777 -0.01003825 207.98361921 -0.02027929 C213.77038714 0.03769243 213.77038714 0.03769243 215.91010106 1.77365291 C217.61861867 3.91339028 217.57064243 5.21508588 217.57443237 7.93551636 C217.58289185 8.86927597 217.59135132 9.80303558 217.60006714 10.76509094 C217.5909581 12.29874046 217.5909581 12.29874046 217.58166504 13.8633728 C217.58955048 15.4807711 217.58955048 15.4807711 217.59759521 17.13084412 C217.61082592 20.70394266 217.60204598 24.27659765 217.59191895 27.84970093 C217.59393879 30.32687465 217.59684948 32.8040478 217.60061646 35.28121948 C217.60561159 41.1424916 217.59509459 47.00360208 217.57916415 52.86485052 C217.56789994 57.5416695 217.5718835 62.21829913 217.58459473 66.89511108 C217.60195458 73.33710738 217.60472496 79.77892032 217.59492874 86.22093201 C217.5929235 88.68019147 217.59539729 91.1394587 217.6023674 93.59870911 C217.60996245 97.03219432 217.59840438 100.46508804 217.58166504 103.89852905 C217.58773773 104.92096207 217.59381042 105.94339508 217.60006714 106.99681091 C217.58737793 108.39745033 217.58737793 108.39745033 217.57443237 109.8263855 C217.5733013 110.63827583 217.57217022 111.45016617 217.57100487 112.28665924 C217.09200185 114.94390373 216.27015409 115.69613614 214.19348145 117.38095093 C211.18931289 117.67603679 208.39239351 117.78537358 205.38696289 117.76190186 C204.47588414 117.76658183 203.56480538 117.7712618 202.62611818 117.77608359 C199.56053572 117.78808937 196.49539568 117.77855454 193.42980957 117.76913452 C191.23721556 117.77319774 189.04462359 117.77853821 186.85203552 117.7850647 C180.88727513 117.79877377 174.92266992 117.79342481 168.95790672 117.78392744 C162.72527005 117.77634944 156.49264695 117.78337127 150.26000977 117.78808594 C139.12087426 117.79389917 127.9817959 117.784557 116.84267408 117.76930793 C106.7387089 117.75590427 96.6348471 117.75823223 86.53088379 117.77206421 C74.80327114 117.78811135 63.07570887 117.79409876 51.34808493 117.78522742 C45.13792023 117.7805424 38.92782679 117.77994878 32.71766663 117.78983688 C26.88018746 117.79848178 21.04290418 117.79252998 15.20544624 117.77515411 C13.05878081 117.77117601 10.91209898 117.77234579 8.76543999 117.77894211 C5.84340156 117.78709544 2.9219976 117.77691139 0 117.76190186 C-0.85689659 117.76859402 -1.71379317 117.77528619 -2.59665632 117.78218114 C-8.38342425 117.72420943 -8.38342425 117.72420943 -10.52313817 115.98824894 C-12.23165578 113.84851157 -12.18367954 112.54681598 -12.18746948 109.8263855 C-12.19592896 108.89262589 -12.20438843 107.95886627 -12.21310425 106.99681091 C-12.20703156 105.9743779 -12.20095886 104.95194489 -12.19470215 103.89852905 C-12.19995911 102.82026352 -12.20521606 101.74199799 -12.21063232 100.63105774 C-12.22386303 97.05795919 -12.21508309 93.4853042 -12.20495605 89.91220093 C-12.2069759 87.4350272 -12.20988659 84.95785406 -12.21365356 82.48068237 C-12.2186487 76.61941025 -12.2081317 70.75829977 -12.19220126 64.89705133 C-12.18093705 60.22023235 -12.18492061 55.54360272 -12.19763184 50.86679077 C-12.21499169 44.42479447 -12.21776207 37.98298153 -12.20796585 31.54096985 C-12.20596061 29.08171038 -12.2084344 26.62244315 -12.21540451 24.16319275 C-12.22299956 20.72970754 -12.21144149 17.29681381 -12.19470215 13.8633728 C-12.20381119 12.32972328 -12.20381119 12.32972328 -12.21310425 10.76509094 C-12.20464478 9.83133133 -12.1961853 8.89757172 -12.18746948 7.93551636 C-12.18633841 7.12362602 -12.18520733 6.31173569 -12.18404198 5.47524261 C-11.04107411 -0.8653126 -5.21912065 -0.04076013 0 0 Z " fill="#FCFCFB" transform="translate(183.8065185546875,795.6190490722656)"/>
<path d="M0 0 C1.36177444 -0.0083016 1.36177444 -0.0083016 2.75105947 -0.0167709 C5.79984666 -0.03040826 8.84781959 -0.01539136 11.89659119 -0.00050354 C14.07948149 -0.00428556 16.2623694 -0.00978463 18.44525146 -0.01687622 C24.37901273 -0.03086244 30.31248508 -0.01963907 36.24623036 -0.00316501 C42.44816278 0.01066124 48.65007801 0.00422825 54.85202026 0.0007019 C65.93453767 -0.00217524 77.01692859 0.01438621 88.09941541 0.03912263 C98.15163656 0.06108568 108.20372733 0.06500131 118.25596619 0.05516052 C131.16998041 0.04257772 144.08389713 0.04503534 156.99790764 0.06081963 C161.93287742 0.0665883 166.86779625 0.06648985 171.8027668 0.06175423 C177.60990212 0.05699347 183.41682579 0.06704874 189.22392082 0.08870888 C191.35929526 0.09428897 193.49468999 0.09473092 195.63006592 0.08975601 C198.5367365 0.08383179 201.44275367 0.09625313 204.34936523 0.11352539 C205.20168875 0.10751535 206.05401227 0.1015053 206.93216377 0.09531313 C212.68831637 0.15785217 212.68831637 0.15785217 214.82665974 1.89408201 C216.53673022 4.03361326 216.48835076 5.33460534 216.49214172 8.05577087 C216.5006012 8.98953049 216.50906067 9.9232901 216.51777649 10.88534546 C216.50866745 12.41899498 216.50866745 12.41899498 216.49937439 13.98362732 C216.50725983 15.60102562 216.50725983 15.60102562 216.51530457 17.25109863 C216.52853527 20.82419718 216.51975533 24.39685217 216.5096283 27.96995544 C216.51164814 30.44712917 216.51455883 32.92430232 216.51832581 35.401474 C216.52332094 41.26274612 216.51280394 47.1238566 216.4968735 52.98510504 C216.48560929 57.66192402 216.48959285 62.33855365 216.50230408 67.0153656 C216.51966393 73.4573619 216.52243431 79.89917484 216.51263809 86.34118652 C216.51063285 88.80044599 216.51310664 91.25971322 216.52007675 93.71896362 C216.5276718 97.15244883 216.51611373 100.58534256 216.49937439 104.01878357 C216.50544708 105.04121658 216.51151978 106.0636496 216.51777649 107.11706543 C216.50508728 108.51770485 216.50508728 108.51770485 216.49214172 109.94664001 C216.49101065 110.75853035 216.48987957 111.57042068 216.48871422 112.40691376 C216.0097112 115.06415825 215.18786344 115.81639066 213.1111908 117.50120544 C210.10702224 117.79629131 207.31010286 117.90562809 204.30467224 117.88215637 C203.39359349 117.88683634 202.48251473 117.89151632 201.54382753 117.89633811 C198.47824507 117.90834388 195.41310504 117.89880906 192.34751892 117.88938904 C190.15492491 117.89345226 187.96233294 117.89879272 185.76974487 117.90531921 C179.80498448 117.91902829 173.84037927 117.91367932 167.87561607 117.90418196 C161.6429794 117.89660395 155.4103563 117.90362578 149.17771912 117.90834045 C138.03858362 117.91415368 126.89950525 117.90481152 115.76038343 117.88956244 C105.65641825 117.87615879 95.55255646 117.87848675 85.44859314 117.89231873 C73.72098049 117.90836586 61.99341822 117.91435328 50.26579428 117.90548193 C44.05562958 117.90079691 37.84553614 117.9002033 31.63537598 117.9100914 C25.79789681 117.9187363 19.96061353 117.9127845 14.12315559 117.89540863 C11.97649016 117.89143053 9.82980833 117.89260031 7.68314934 117.89919662 C4.76111091 117.90734995 1.83970695 117.89716591 -1.08229065 117.88215637 C-1.93918724 117.88884854 -2.79608382 117.8955407 -3.67894697 117.90243566 C-9.46611207 117.84445997 -9.46611207 117.84445997 -11.60525423 116.10735279 C-13.30558036 113.97968832 -13.26830302 112.69734516 -13.27648926 109.99133301 C-13.28639389 109.06743271 -13.29629852 108.14353241 -13.3065033 107.19163513 C-13.30200165 106.1801239 -13.2975 105.16861267 -13.29286194 104.12644958 C-13.29972519 103.05954391 -13.30658844 101.99263824 -13.31365967 100.8934021 C-13.33199951 97.35758757 -13.32807978 93.8222137 -13.32240295 90.28636169 C-13.32696134 87.83400324 -13.33226588 85.38164607 -13.33828735 82.92929077 C-13.34723264 77.78532223 -13.34477918 72.64150881 -13.33485413 67.49754333 C-13.3233637 60.89847764 -13.34357053 54.29994696 -13.37277126 47.70095158 C-13.39109844 42.63523952 -13.3908477 37.56965648 -13.38513374 32.5039196 C-13.3849801 30.07059923 -13.39105992 27.63727035 -13.40342522 25.2039814 C-13.41826688 21.80409605 -13.40770737 18.40520947 -13.39051819 15.00535583 C-13.40018616 13.99586884 -13.40985413 12.98638184 -13.41981506 11.94630432 C-13.40998093 11.0195842 -13.40014679 10.09286407 -13.39001465 9.13806152 C-13.38980536 8.33446733 -13.38959608 7.53087313 -13.38938046 6.70292759 C-11.79358327 -0.31605721 -6.0805613 -0.06870289 0 0 Z " fill="#FCFBFB" transform="translate(184.88880920410156,122.49879455566406)"/>
<path d="M0 0 C3.125 0.5 3.125 0.5 5.1875 2.6875 C9.36739789 10.03292726 11.88936533 18.38813293 14.125 26.5 C14.89166992 26.5093457 15.65833984 26.51869141 16.44824219 26.52832031 C19.92448103 26.58202773 23.39937474 26.66567576 26.875 26.75 C28.68484375 26.77126953 28.68484375 26.77126953 30.53125 26.79296875 C32.27148438 26.84130859 32.27148438 26.84130859 34.046875 26.890625 C35.64934082 26.9220459 35.64934082 26.9220459 37.28417969 26.95410156 C40.76198951 27.62240534 41.97997351 28.73110584 44.125 31.5 C44.35739745 34.36623518 43.65947819 35.83564861 41.87109375 38.05859375 C39.15477044 40.89273349 36.36401006 43.32692375 33.1796875 45.6328125 C27.77113274 49.22875818 27.77113274 49.22875818 24.5390625 54.546875 C24.78791195 56.99850289 25.40853593 59.13947588 26.125 61.5 C26.52329473 63.40941292 26.920349 65.31920279 27.29248047 67.23388672 C27.67304959 69.17624752 28.08782745 71.11180994 28.50390625 73.046875 C29.81690601 80.34682332 29.81690601 80.34682332 28 83.375 C26.125 84.5 26.125 84.5 23.60546875 84.45703125 C17.69689176 82.83233836 13.00825165 79.02019572 8.02539062 75.54101562 C7.21134766 74.99767578 6.39730469 74.45433594 5.55859375 73.89453125 C4.82697021 73.38768799 4.09534668 72.88084473 3.34155273 72.35864258 C1.10259565 71.23894288 1.10259565 71.23894288 -1.38647461 72.18554688 C-3.71367659 73.41478807 -5.92495116 74.69319133 -8.125 76.13671875 C-8.8984375 76.63107422 -9.671875 77.12542969 -10.46875 77.63476562 C-12.07827682 78.67338074 -13.68244973 79.72033818 -15.28125 80.77539062 C-16.0546875 81.26587891 -16.828125 81.75636719 -17.625 82.26171875 C-18.32109375 82.71506592 -19.0171875 83.16841309 -19.734375 83.63549805 C-22.52103877 84.76090594 -24.04846715 84.41634183 -26.875 83.5 C-28.875 81.5 -28.875 81.5 -28.95703125 79.57421875 C-28.26385574 73.43609937 -27.03602988 67.56103474 -25.49609375 61.578125 C-24.84271283 58.33998558 -24.45273652 55.78476537 -24.875 52.5 C-26.75163932 50.0767353 -26.75163932 50.0767353 -29.375 48.0625 C-30.73431641 46.91201172 -30.73431641 46.91201172 -32.12109375 45.73828125 C-33.84214422 44.33947001 -35.56345504 42.94097897 -37.28515625 41.54296875 C-37.99542969 40.95128906 -38.70570312 40.35960937 -39.4375 39.75 C-40.39849609 38.98429687 -40.39849609 38.98429687 -41.37890625 38.203125 C-43.36772124 35.93909541 -43.83342187 34.51210426 -43.875 31.5 C-41.74694139 28.7101142 -40.51488017 27.62296082 -37.03417969 26.95410156 C-35.96586914 26.9331543 -34.89755859 26.91220703 -33.796875 26.890625 C-32.63671875 26.85839844 -31.4765625 26.82617188 -30.28125 26.79296875 C-29.0746875 26.77878906 -27.868125 26.76460938 -26.625 26.75 C-25.40296875 26.72035156 -24.1809375 26.69070313 -22.921875 26.66015625 C-19.90618356 26.58947598 -16.8912645 26.53676825 -13.875 26.5 C-13.68248657 25.40401489 -13.68248657 25.40401489 -13.48608398 24.28588867 C-12.52463774 19.90272322 -10.69066414 15.93010851 -8.9375 11.8125 C-8.57720703 10.94560547 -8.21691406 10.07871094 -7.84570312 9.18554688 C-7.49572266 8.35732422 -7.14574219 7.52910156 -6.78515625 6.67578125 C-6.46683838 5.92208252 -6.14852051 5.16838379 -5.82055664 4.3918457 C-4.30592782 1.36141484 -3.36603638 0.58539763 0 0 Z " fill="#DAAC2B" transform="translate(1236.875,404.5)"/>
<path d="M0 0 C11.55 0 23.1 0 35 0 C35.12375 4.82625 35.2475 9.6525 35.375 14.625 C36.19057628 41.75494568 38.29015757 66.79913161 49.14941406 91.95214844 C50.24515707 94.59023465 51.14974052 97.27391031 52 100 C36.01979984 96.82069316 23.31359201 88.95076783 13.65234375 75.65234375 C-0.73003275 52.56573939 -0.56838934 26.25958743 0 0 Z " fill="#FCFBF9" transform="translate(1092,390)"/>
<path d="M0 0 C11.55 0 23.1 0 35 0 C35.5387673 62.49700736 35.5387673 62.49700736 13 86 C4.29167773 93.43322683 -5.78707998 97.97799803 -17 100 C-15.6609266 95.76065861 -14.03675615 91.79006357 -12.1875 87.75 C-2.40075234 65.55182205 -0.98570946 42.16535796 -0.4375 18.25 C-0.3942015 16.47395047 -0.35058406 14.69790869 -0.30664062 12.921875 C-0.20016578 8.61466598 -0.10022115 4.30737699 0 0 Z " fill="#FCFBFA" transform="translate(1346,390)"/>
<path d="M0 0 C0.8555397 -0.00365067 1.71107941 -0.00730133 2.59254456 -0.01106262 C5.42379532 -0.01917654 8.25447533 -0.00555219 11.08569336 0.0090332 C13.04959615 0.00955166 15.01349946 0.00903452 16.97740173 0.00752258 C21.09406273 0.00761234 25.21052803 0.01805001 29.32714844 0.03613281 C34.61247746 0.05883498 39.8975208 0.05936177 45.18288517 0.05261517 C49.23797662 0.04927925 53.29300255 0.05589789 57.34808159 0.0657444 C59.29739476 0.0696021 61.24671522 0.07074227 63.19603157 0.06915855 C65.91598619 0.06878908 68.6355697 0.08137442 71.35546875 0.09765625 C72.57191071 0.09394012 72.57191071 0.09394012 73.81292725 0.09014893 C79.38429456 0.1435719 79.38429456 0.1435719 81.61303711 2.37231445 C82.29907227 4.34008789 82.29907227 4.34008789 82.90209961 6.73168945 C83.12124023 7.60051758 83.34038086 8.4693457 83.56616211 9.36450195 C83.78788086 10.27458008 84.00959961 11.1846582 84.23803711 12.12231445 C84.46749023 13.01692383 84.69694336 13.9115332 84.93334961 14.83325195 C85.14991211 15.70723633 85.36647461 16.5812207 85.58959961 17.48168945 C85.88471436 18.6722998 85.88471436 18.6722998 86.18579102 19.88696289 C86.61303711 22.37231445 86.61303711 22.37231445 86.61303711 28.37231445 C52.62303711 28.37231445 18.63303711 28.37231445 -16.38696289 28.37231445 C-15.71838859 22.35514572 -14.96800801 16.81038008 -13.51196289 10.99731445 C-13.35083008 10.29993164 -13.18969727 9.60254883 -13.02368164 8.8840332 C-10.97040648 0.59134824 -8.15599934 -0.07706696 0 0 Z " fill="#FBFBF9" transform="translate(1201.386962890625,626.627685546875)"/>
<path d="M0 0 C5.94 0 11.88 0 18 0 C18.12117188 1.97742188 18.24234375 3.95484375 18.3671875 5.9921875 C18.49251735 7.94176294 18.61789826 9.89133543 18.74462891 11.84082031 C18.87218556 13.83108625 18.99281185 15.82179251 19.11328125 17.8125 C19.23896484 19.72675781 19.23896484 19.72675781 19.3671875 21.6796875 C19.44050293 22.84226074 19.51381836 24.00483398 19.58935547 25.20263672 C20.09130918 29.8443656 21.08437486 34.42187428 22 39 C13.42 39 4.84 39 -4 39 C-3.525625 37.02 -3.05125 35.04 -2.5625 33 C-0.19937248 22.16563975 -0.26484839 11.04143815 0 0 Z " fill="#FAFAF7" transform="translate(1228,570)"/>
<path d="M0 0 C0.80217839 -0.00199105 1.60435677 -0.0039821 2.43084359 -0.00603348 C3.74407086 -0.00166422 3.74407086 -0.00166422 5.08382797 0.00279331 C6.48552943 0.00151167 6.48552943 0.00151167 7.91554809 0.00020415 C11.05399717 -0.00144599 14.19239307 0.00406315 17.33083725 0.00952244 C19.5777041 0.00980444 21.82457104 0.00964633 24.07143784 0.00907993 C30.17845226 0.00879245 36.28544714 0.01468128 42.39245701 0.02165389 C48.77196085 0.02789558 55.15146511 0.02849188 61.53097153 0.0296793 C72.24095691 0.03243652 82.95093373 0.0386872 93.66091537 0.04760838 C104.69216501 0.05678761 115.72341269 0.06386594 126.75466537 0.06811619 C127.77464152 0.06851027 127.77464152 0.06851027 128.81522325 0.06891232 C132.22650894 0.07021736 135.63779465 0.07148107 139.04908037 0.07272422 C167.34840793 0.08309067 195.64772767 0.10077796 223.94704819 0.12304783 C223.94704819 0.45304783 223.94704819 0.78304783 223.94704819 1.12304783 C199.69228736 1.27791051 175.43749272 1.42590496 151.18264198 1.56601143 C139.91740254 1.6312396 128.65218391 1.69860602 117.38698959 1.77124119 C107.55333789 1.83464044 97.71967073 1.89378855 87.88596451 1.94810337 C82.69267689 1.97692889 77.49941928 2.00769803 72.30617523 2.04358196 C49.4922127 2.19981207 26.74201757 2.16624307 3.94704819 1.12304783 C3.61704819 1.78304783 3.28704819 2.44304783 2.94704819 3.12304783 C2.39017319 2.93742283 1.83329819 2.75179783 1.25954819 2.56054783 C-3.71736746 1.61896919 -7.86189455 3.52459233 -12.05295181 6.12304783 C-23.90903457 18.00347572 -21.20219975 33.53728121 -21.18924713 49.35876179 C-21.1880978 50.45402306 -21.18694847 51.54928432 -21.18576431 52.67773533 C-21.18643909 54.95167139 -21.18741057 57.22560738 -21.18866348 59.49954319 C-21.19013045 64.24156481 -21.18801702 68.98356748 -21.18332291 73.72558689 C-21.1776066 79.79476956 -21.18092297 85.86390818 -21.18689537 91.93308926 C-21.19051137 96.61884995 -21.18935794 101.30460021 -21.18676758 105.99036121 C-21.1861022 108.22860946 -21.18691309 110.46685866 -21.18924713 112.70510578 C-21.19179286 115.82995963 -21.18790683 118.95474224 -21.18234634 122.0795908 C-21.18437057 122.99712635 -21.18639481 123.9146619 -21.18848038 124.86000156 C-21.17249273 129.72175987 -20.87396037 134.32917075 -20.05295181 139.12304783 C-20.71295181 139.45304783 -21.37295181 139.78304783 -22.05295181 140.12304783 C-23.02993601 137.19209524 -23.18300718 135.2999786 -23.19339371 132.24699497 C-23.19910385 131.24184345 -23.204814 130.23669193 -23.21069717 129.20108128 C-23.21181503 128.09920475 -23.21293289 126.99732822 -23.21408463 125.8620615 C-23.21904953 124.70083271 -23.22401443 123.53960392 -23.22912979 122.34318638 C-23.2437635 118.49245714 -23.25055541 114.64176909 -23.25607681 110.79101658 C-23.26037431 108.79429424 -23.26467233 106.7975719 -23.26905131 104.80084974 C-23.28086212 99.23639716 -23.28839955 93.67195456 -23.29184651 88.10749072 C-23.2963257 80.9166436 -23.31386808 73.72598672 -23.34284711 66.53519744 C-23.36448173 60.97330182 -23.37455175 55.41145965 -23.37588763 49.84952241 C-23.37693447 46.52934447 -23.38426644 43.20938593 -23.40070724 39.88924313 C-23.41774805 36.18342114 -23.41589196 32.47806295 -23.40939713 28.77221775 C-23.41861191 27.67641392 -23.42782669 26.58061008 -23.43732071 25.45160007 C-23.38927837 16.70767679 -21.1862243 11.53510543 -15.05295181 5.12304783 C-10.29274385 1.75346242 -5.81322635 -0.00319408 0 0 Z " fill="#DFB539" transform="translate(177.05295181274414,557.8769521713257)"/>
<path d="M0 0 C8.58 0 17.16 0 26 0 C25.34 3.63 24.68 7.26 24 11 C23.8041621 13.17655986 23.65527884 15.35871668 23.5859375 17.54296875 C23.54726562 18.63544922 23.50859375 19.72792969 23.46875 20.85351562 C23.42234375 22.50383789 23.42234375 22.50383789 23.375 24.1875 C23.33632812 25.33025391 23.29765625 26.47300781 23.2578125 27.65039062 C23.16465589 30.43344445 23.07884151 33.21651022 23 36 C22.67 36 22.34 36 22 36 C22 30.06 22 24.12 22 18 C12.595 18.495 12.595 18.495 3 19 C2.505 16.421875 2.01 13.84375 1.5 11.1875 C1.34337891 10.37949951 1.18675781 9.57149902 1.02539062 8.73901367 C0.46402571 5.77959587 0 3.01877934 0 0 Z " fill="#E2C046" transform="translate(1224,552)"/>
<path d="M0 0 C-3.5 3.5 -3.5 3.5 -7 7 C-7.19539702 9.37980042 -7.19539702 9.37980042 -7.01953125 12.12109375 C-6.99052734 13.13880859 -6.96152344 14.15652344 -6.93164062 15.20507812 C-6.85234022 17.35658905 -6.76122916 19.50769773 -6.65820312 21.65820312 C-6.63306641 22.67720703 -6.60792969 23.69621094 -6.58203125 24.74609375 C-6.54311768 25.68122803 -6.5042041 26.6163623 -6.46411133 27.57983398 C-7 30 -7 30 -8.90283203 31.82104492 C-13.32248563 33.50341188 -17.29032852 33.27511997 -21.97265625 33.1171875 C-23.94335101 33.08413294 -25.91405452 33.0515965 -27.88476562 33.01953125 C-30.98152715 32.95110269 -34.07777483 32.87457094 -37.17407227 32.78759766 C-40.16943897 32.70919113 -43.16411971 32.6615131 -46.16015625 32.6171875 C-47.08627213 32.58196991 -48.012388 32.54675232 -48.96656799 32.51046753 C-54.23407467 32.4095323 -54.23407467 32.4095323 -58.5769043 35.17919922 C-60.1098851 38.21780966 -60.5344005 40.13023791 -60.609375 43.515625 C-60.64168213 44.59094482 -60.67398926 45.66626465 -60.70727539 46.77416992 C-60.72137451 47.92119385 -60.73547363 49.06821777 -60.75 50.25 C-60.77892334 51.43118408 -60.80784668 52.61236816 -60.83764648 53.8293457 C-61.10113788 65.88347617 -61.10250474 77.94386509 -61 90 C-61.33 90 -61.66 90 -62 90 C-62.81426641 83.53012676 -63.18480158 77.18990575 -63.23828125 70.671875 C-63.246353 69.71984192 -63.25442474 68.76780884 -63.26274109 67.78692627 C-63.2764768 65.79026051 -63.28724518 63.7935723 -63.29516602 61.796875 C-63.30676315 59.75839337 -63.32733451 57.71994387 -63.35668945 55.68164062 C-63.39925219 52.7198446 -63.41550963 49.75893831 -63.42578125 46.796875 C-63.44328934 45.88846863 -63.46079742 44.98006226 -63.47883606 44.04412842 C-63.46471709 39.93480331 -63.36025475 37.60575472 -61.22338867 34.01269531 C-57.74342694 30.86250266 -55.10435443 29.74660475 -50.41503906 29.77294922 C-49.51440735 29.77310028 -48.61377563 29.77325134 -47.68585205 29.77340698 C-46.24033966 29.78889084 -46.24033966 29.78889084 -44.765625 29.8046875 C-43.27588165 29.80893234 -43.27588165 29.80893234 -41.75604248 29.81326294 C-38.58723856 29.82444857 -35.41871835 29.84955038 -32.25 29.875 C-30.1002645 29.88503188 -27.95052457 29.89415737 -25.80078125 29.90234375 C-20.53375754 29.92438259 -15.26689904 29.95784416 -10 30 C-10.02094727 29.3702124 -10.04189453 28.7404248 -10.06347656 28.09155273 C-10.14720099 25.20703429 -10.19883621 22.32277232 -10.25 19.4375 C-10.28351563 18.44685547 -10.31703125 17.45621094 -10.3515625 16.43554688 C-10.43670251 10.02876144 -9.8264438 6.20311639 -6 1 C-2.68292683 -1.34146341 -2.68292683 -1.34146341 0 0 Z " fill="#E6B218" transform="translate(1137,341)"/>
<path d="M0 0 C1.39942104 -0.00256327 1.39942104 -0.00256327 2.82711321 -0.00517833 C5.9424841 -0.00846354 9.05763796 0.00251457 12.17298889 0.01345825 C14.41044612 0.01402257 16.64790371 0.01370539 18.88536072 0.01257324 C24.952967 0.01199955 31.02049417 0.02375659 37.08808208 0.03772116 C43.43153021 0.05022574 49.77498016 0.0513988 56.11843872 0.05377197 C66.76342803 0.0592814 77.40838611 0.07177287 88.05335999 0.08963013 C99.0155981 0.10800044 109.97782833 0.1221513 120.94007874 0.13064575 C121.95439213 0.13143392 121.95439213 0.13143392 122.98919671 0.13223802 C126.38168639 0.13484817 129.77417613 0.13737557 133.16666591 0.13986182 C161.29127095 0.16058049 189.41584394 0.19594303 217.54042053 0.24050903 C217.54042053 0.57050903 217.54042053 0.90050903 217.54042053 1.24050903 C216.40127795 1.24289739 215.26213537 1.24528574 214.08847332 1.24774647 C186.35345017 1.30657606 158.61851364 1.38248039 130.88358593 1.47622395 C128.2119873 1.4851754 125.54038861 1.49410271 122.86878967 1.50296021 C121.87275715 1.50626573 121.87275715 1.50626573 120.85660277 1.50963803 C110.78645703 1.54276969 100.71631365 1.56721976 90.64613342 1.58694458 C78.95395317 1.60993925 67.26185674 1.64335388 55.56974298 1.68921059 C49.38053004 1.7131228 43.19140001 1.73186477 37.00214195 1.73812294 C31.17204005 1.74418273 25.34215023 1.76421535 19.51212692 1.79478455 C17.37689882 1.80355035 15.24164299 1.80729038 13.10639763 1.8055172 C-4.42568074 0.92648635 -4.42568074 0.92648635 -19.64707947 7.92800903 C-20.24520447 8.69113403 -20.84332947 9.45425903 -21.45957947 10.24050903 C-22.44957947 9.91050903 -23.43957947 9.58050903 -24.45957947 9.24050903 C-23.2862671 8.10071987 -22.09504062 6.97936285 -20.89707947 5.86550903 C-20.23579041 5.23902466 -19.57450134 4.61254028 -18.89317322 3.96707153 C-13.1403486 -0.1143867 -6.79005459 -0.04584396 0 0 Z " fill="#DFBD5C" transform="translate(182.45957946777344,335.7594909667969)"/>
<path d="M0 0 C-0.96099609 0.31130859 -0.96099609 0.31130859 -1.94140625 0.62890625 C-8.88516669 3.10216817 -14.20717805 6.29404212 -18.04731846 12.76475143 C-21.2409083 20.25777696 -20.14341794 30.23853772 -20.11352539 38.27636719 C-20.11374443 39.8590741 -20.11374443 39.8590741 -20.1139679 41.47375488 C-20.11327869 44.91481683 -20.10553341 48.35582267 -20.09765625 51.796875 C-20.09578854 54.20111054 -20.0943663 56.60534646 -20.09336853 59.00958252 C-20.08957118 65.30262321 -20.07976496 71.5956404 -20.06866455 77.88867188 C-20.0583903 84.32421552 -20.05385808 90.759763 -20.04882812 97.1953125 C-20.03813992 109.79688496 -20.02129265 122.39844122 -20 135 C-20.66 134.67 -21.32 134.34 -22 134 C-22.09357804 118.75294617 -22.16404507 103.50590562 -22.20724869 88.25862885 C-22.22784508 81.17850628 -22.25590929 74.09856248 -22.30175781 67.01855469 C-22.34599227 60.18451751 -22.36914563 53.3506661 -22.37950897 46.51649475 C-22.38689334 43.9106199 -22.40131322 41.30475508 -22.42292023 38.69895935 C-22.45200386 35.04582862 -22.45595374 31.39346246 -22.45410156 27.74023438 C-22.47567322 26.12829697 -22.47567322 26.12829697 -22.49768066 24.48379517 C-22.45611409 16.89515418 -21.14650217 11.65605717 -16.0703125 5.7578125 C-11.00355827 1.50499469 -6.82685729 -1.98387306 0 0 Z " fill="#E2B429" transform="translate(176,779)"/>
<path d="M0 0 C1 3 1 3 0 6 C-0.14587626 7.41663363 -0.24490288 8.83839797 -0.31297302 10.26089478 C-0.35444741 11.11950293 -0.3959218 11.97811108 -0.43865299 12.86273766 C-0.47750834 13.79442583 -0.5163637 14.72611401 -0.55639648 15.68603516 C-0.59857772 16.66374186 -0.64075895 17.64144855 -0.68421841 18.64878273 C-1.12510545 29.77352453 -1.12593842 40.89180752 -1.09765625 52.0234375 C-1.09578449 54.23401863 -1.09436419 56.44460019 -1.09336853 58.65518188 C-1.08960289 64.39240727 -1.07982567 70.12960616 -1.06866455 75.86682129 C-1.05832024 81.75365847 -1.05384341 87.64050005 -1.04882812 93.52734375 C-1.03819622 105.01824062 -1.02119415 116.50911808 -1 128 C-0.34 128 0.32 128 1 128 C1.4021875 129.11375 1.4021875 129.11375 1.8125 130.25 C2.94229421 132.86636554 4.20893202 134.80187111 6 137 C5.505 137.99 5.505 137.99 5 139 C4.03009724 137.96909707 3.07463799 136.92459988 2.125 135.875 C1.32449219 135.00488281 1.32449219 135.00488281 0.5078125 134.1171875 C-3.74965176 128.13909001 -3.29077119 121.53146607 -3.2746582 114.50610352 C-3.27976913 113.35579651 -3.28488007 112.2054895 -3.29014587 111.02032471 C-3.30403015 107.22313209 -3.30308601 103.42612121 -3.30078125 99.62890625 C-3.30466864 96.98624097 -3.30900339 94.34357632 -3.31376648 91.70091248 C-3.32196986 86.16379183 -3.32107771 80.62672223 -3.31567383 75.08959961 C-3.30963387 68.70024499 -3.3219492 62.31111058 -3.3432439 55.92179352 C-3.3630169 49.76122722 -3.36602981 43.60076353 -3.36250877 37.44016838 C-3.36302197 34.82511821 -3.36825932 32.21006451 -3.37832069 29.59503365 C-3.39066635 25.93761381 -3.38390412 22.2807028 -3.37231445 18.62329102 C-3.37995819 17.54514633 -3.38760193 16.46700165 -3.39547729 15.35618591 C-3.35415323 9.45162081 -2.78767038 5.23570694 0 0 Z " fill="#E6BB30" transform="translate(157,346)"/>
<path d="M0 0 C0 3.95072338 -1.62146725 5.68931139 -3.80859375 8.8671875 C-6.7630167 14.15608891 -6.14803881 20.28562415 -6.14526367 26.16772461 C-6.14862228 27.18959869 -6.1519809 28.21147278 -6.15544128 29.26431274 C-6.16494075 32.64366879 -6.16689437 36.02297518 -6.16796875 39.40234375 C-6.17118369 41.76062541 -6.17454794 44.11890687 -6.17805481 46.47718811 C-6.18404475 51.42595888 -6.18589501 56.37471219 -6.18530273 61.32348633 C-6.1852015 67.6343772 -6.19881411 73.94515457 -6.21607494 80.25601864 C-6.22725315 85.13166304 -6.22922011 90.00728058 -6.22869301 94.88293648 C-6.22986589 97.20750886 -6.23424838 99.5320821 -6.24202538 101.85664177 C-6.27803007 113.73743025 -6.28704169 125.29448483 -4 137 C-6.74889911 134.4901356 -7.89904246 132.62286629 -8.13701439 128.79752922 C-8.14258669 127.93443705 -8.14815899 127.07134487 -8.15390015 126.18209839 C-8.16250061 125.1896965 -8.17110107 124.19729462 -8.17996216 123.17481995 C-8.18422211 122.08700729 -8.18848206 120.99919464 -8.19287109 119.87841797 C-8.20104858 118.73176163 -8.20922607 117.58510529 -8.21765137 116.40370178 C-8.24251167 112.59986901 -8.25902435 108.79607362 -8.2734375 104.9921875 C-8.27876118 103.69329716 -8.28408485 102.39440681 -8.28956985 101.05615616 C-8.31080185 95.59507532 -8.3299306 90.13400662 -8.34119225 84.67289543 C-8.35740897 76.86154689 -8.39053193 69.05069752 -8.44759309 61.23953712 C-8.48639161 55.73959387 -8.5058368 50.23978355 -8.51111281 44.73970711 C-8.51475402 41.45894372 -8.52916945 38.1788329 -8.55921555 34.89818954 C-8.59088129 31.23105909 -8.59090055 27.56518086 -8.58349609 23.89794922 C-8.59990143 22.82228195 -8.61630676 21.74661469 -8.63320923 20.63835144 C-8.56920082 12.87190716 -6.78054344 6.96393833 -1.33431053 1.25350761 C-0.89398806 0.8398501 -0.45366558 0.42619259 0 0 Z " fill="#E6BC33" transform="translate(162,110)"/>
<path d="M0 0 C5.25111196 -0.02290839 10.50205178 -0.04283563 15.75317383 -0.05493164 C17.54094021 -0.05997218 19.32870245 -0.06680454 21.11645508 -0.07543945 C23.68051168 -0.0875173 26.24451397 -0.09323094 28.80859375 -0.09765625 C29.6127623 -0.10281754 30.41693085 -0.10797882 31.24546814 -0.11329651 C33.16401715 -0.11349215 35.08245368 -0.06201983 37 0 C38.67278654 1.67278654 38.2079569 3.74749903 38.28125 6.046875 C38.31798828 7.10898193 38.35472656 8.17108887 38.39257812 9.26538086 C38.42802734 10.41530518 38.46347656 11.56522949 38.5 12.75 C38.5825659 15.1419537 38.66590911 17.53388068 38.75 19.92578125 C38.79125 21.12283691 38.8325 22.31989258 38.875 23.55322266 C39.04895005 28.34975951 39.26640481 33.14354149 39.5 37.9375 C39.5405249 38.77273193 39.5810498 39.60796387 39.62280273 40.46850586 C40.057609 49.31358457 40.52500458 58.1570002 41 67 C40.67 67 40.34 67 40 67 C39.51172869 64.14714436 39.034405 61.29307398 38.5625 58.4375 C38.42779297 57.65697266 38.29308594 56.87644531 38.15429688 56.07226562 C35.98525215 42.79347964 35.85789124 29.47692884 35.9375 16.0625 C35.9684375 8.6065625 35.9684375 8.6065625 36 1 C24.45 1 12.9 1 1 1 C1 7.93 1 14.86 1 22 C0.67 22 0.34 22 0 22 C0 14.74 0 7.48 0 0 Z " fill="#E6C354" transform="translate(1091,389)"/>
<path d="M0 0 C-2.33333333 2.33333333 -4.66666667 4.66666667 -7 7 C-7.19539702 9.37980042 -7.19539702 9.37980042 -7.01953125 12.12109375 C-6.99052734 13.13880859 -6.96152344 14.15652344 -6.93164062 15.20507812 C-6.85234022 17.35658905 -6.76122916 19.50769773 -6.65820312 21.65820312 C-6.58778908 24.51268022 -6.56568856 27.17726632 -7 30 C-9.43003998 32.37128254 -10.78421734 32.80658003 -14.0625 33.328125 C-15.0215625 33.28945313 -15.0215625 33.28945313 -16 33.25 C-16.639375 33.23453125 -17.27875 33.2190625 -17.9375 33.203125 C-20 33 -20 33 -22.18823242 32.50708008 C-25.49893101 31.91002173 -28.68788676 31.78376508 -32.05078125 31.68359375 C-33.03899117 31.6524221 -33.03899117 31.6524221 -34.04716492 31.62062073 C-36.13551185 31.55564511 -38.22397612 31.49648425 -40.3125 31.4375 C-41.7350378 31.39426521 -43.15756406 31.3506494 -44.58007812 31.30664062 C-48.05326297 31.20001784 -51.52657726 31.09860652 -55 31 C-55 30.67 -55 30.34 -55 30 C-40.15 30 -25.3 30 -10 30 C-10 22.74 -10 15.48 -10 8 C-6 1 -6 1 -3.875 -0.5 C-2 -1 -2 -1 0 0 Z " fill="#E6C24F" transform="translate(1137,341)"/>
<path d="M0 0 C0.71288681 -0.00029205 1.42577362 -0.00058411 2.16026306 -0.00088501 C4.4977571 0.0004994 6.83492547 0.01601818 9.17236328 0.03173828 C10.80046413 0.03547158 12.42856724 0.03831706 14.05667114 0.04031372 C18.32774126 0.04792523 22.59867389 0.06755222 26.86968994 0.08972168 C31.23358297 0.11023375 35.59749837 0.11932688 39.96142578 0.12939453 C48.51357198 0.1508006 57.06560675 0.18490636 65.61767578 0.22705078 C65.61767578 0.55705078 65.61767578 0.88705078 65.61767578 1.22705078 C43.95664813 3.06495616 22.30576465 2.04415714 0.61767578 1.22705078 C0.28767578 1.88705078 -0.04232422 2.54705078 -0.38232422 3.22705078 C-0.93919922 3.04142578 -1.49607422 2.85580078 -2.06982422 2.66455078 C-7.04673987 1.72297215 -11.19126696 3.62859528 -15.38232422 6.22705078 C-19.9320643 10.78613324 -23.29384699 14.34227854 -23.94482422 20.85205078 C-24.02861328 21.66931641 -24.11240234 22.48658203 -24.19873047 23.32861328 C-24.25931641 23.95509766 -24.31990234 24.58158203 -24.38232422 25.22705078 C-26.38232422 22.22705078 -26.38232422 22.22705078 -26.25732422 18.97705078 C-24.54443971 11.63611719 -21.49206851 7.85874443 -15.57763672 3.48876953 C-10.47492867 0.55607434 -5.82305264 -0.02014897 0 0 Z " fill="#E4C24B" transform="translate(180.38232421875,557.77294921875)"/>
<path d="M0 0 C0.66 0.33 1.32 0.66 2 1 C0.79557292 2.3671875 -0.40885417 3.734375 -1.61328125 5.1015625 C-6.1868996 11.36291043 -7.49070716 18.45100763 -9.1875 25.875 C-9.59645508 27.62296875 -9.59645508 27.62296875 -10.01367188 29.40625 C-10.68250884 32.26934159 -11.34438192 35.13385787 -12 38 C-12.33 38 -12.66 38 -13 38 C-12.72109838 26.71716169 -10.89356779 11.56584273 -3.1875 2.8125 C-1.35546875 1.08203125 -1.35546875 1.08203125 0 0 Z " fill="#C79221" transform="translate(1182,612)"/>
<path d="M0 0 C0.66 0.33 1.32 0.66 2 1 C1.56655273 1.38744385 1.13310547 1.7748877 0.68652344 2.17407227 C-1.30113115 3.96067734 -3.27550491 5.76136631 -5.25 7.5625 C-5.93191406 8.17158203 -6.61382813 8.78066406 -7.31640625 9.40820312 C-13.28828425 14.88725624 -16.69353776 20.11958733 -19 28 C-19.33 28 -19.66 28 -20 28 C-19.50156883 18.69595145 -15.4770325 12.96192015 -8.84765625 6.609375 C-6.04243536 4.16592679 -3.08489195 2.07758029 0 0 Z " fill="#C9931A" transform="translate(1269,532)"/>
<path d="M0 0 C-0.96099609 0.31130859 -0.96099609 0.31130859 -1.94140625 0.62890625 C-8.93977658 3.12161938 -14.38679325 6.35836003 -18.1171875 12.984375 C-19.39546436 15.90291862 -20.17297865 18.9282064 -21 22 C-21.33 22 -21.66 22 -22 22 C-21.64297886 13.96702441 -19.64074507 9.27330576 -13.625 3.75 C-9.26206963 0.19052148 -5.55361456 -1.62921883 0 0 Z " fill="#E5C144" transform="translate(176,779)"/>
<path d="M0 0 C0 4.18270011 -2.32133687 5.88478423 -5.0625 8.75 C-5.56112549 9.28206055 -6.05975098 9.81412109 -6.57348633 10.36230469 C-10.30216074 14.32270463 -14.11068772 18.19711688 -18 22 C-18.99 21.67 -19.98 21.34 -21 21 C-14.72351421 14.56072351 -14.72351421 14.56072351 -11.5 12.0625 C-8.48841407 9.57794161 -6.07622338 6.77250198 -3.55078125 3.8046875 C-2 2 -2 2 0 0 Z " fill="#C99520" transform="translate(1298,505)"/>
<path d="M0 0 C0.66 0 1.32 0 2 0 C1.97679687 0.63164062 1.95359375 1.26328125 1.9296875 1.9140625 C1.77130369 9.76537441 2.73457951 17.26059787 4 25 C1.29804376 22.53299648 0.09210468 20.69135891 -0.11352539 16.9152832 C-0.10828857 16.13499756 -0.10305176 15.35471191 -0.09765625 14.55078125 C-0.09443359 13.70322266 -0.09121094 12.85566406 -0.08789062 11.98242188 C-0.07951172 11.10134766 -0.07113281 10.22027344 -0.0625 9.3125 C-0.05798828 8.41982422 -0.05347656 7.52714844 -0.04882812 6.60742188 C-0.03704983 4.40488013 -0.02060164 2.20247401 0 0 Z " fill="#E6BA2F" transform="translate(154,222)"/>
<path d="M0 0 C1.8871875 0.0309375 1.8871875 0.0309375 3.8125 0.0625 C3.8125 0.3925 3.8125 0.7225 3.8125 1.0625 C3.07644531 1.22105469 2.34039062 1.37960937 1.58203125 1.54296875 C-4.47627178 2.99151941 -8.30078447 4.10358709 -12.1875 9.0625 C-13.1775 8.7325 -14.1675 8.4025 -15.1875 8.0625 C-13.92177767 6.91102339 -12.64972094 5.76650686 -11.375 4.625 C-10.66730469 3.98691406 -9.95960938 3.34882813 -9.23046875 2.69140625 C-6.20846123 0.28188974 -3.73935206 -0.06130085 0 0 Z " fill="#E5BE3B" transform="translate(173.1875,336.9375)"/>
<path d="M0 0 C0.33 0.99 0.66 1.98 1 3 C-0.29296875 5.0078125 -0.29296875 5.0078125 -2.1875 7.125 C-2.79980469 7.82882812 -3.41210938 8.53265625 -4.04296875 9.2578125 C-6.08877269 11.07902718 -7.32606465 11.60869239 -10 12 C-9.61328125 11.55269531 -9.2265625 11.10539062 -8.828125 10.64453125 C-5.81609925 7.1478974 -2.85678969 3.62592537 0 0 Z " fill="#D5AB37" transform="translate(1365,467)"/>
<path d="M0 0 C0.33 0 0.66 0 1 0 C1.33 4.95 1.66 9.9 2 15 C1.34 15 0.68 15 0 15 C-1.47193312 12.05613377 -0.84936173 9.62609964 -0.5625 6.375 C-0.46066406 5.18648438 -0.35882812 3.99796875 -0.25390625 2.7734375 C-0.17011719 1.85820312 -0.08632812 0.94296875 0 0 Z " fill="#E7B62C" transform="translate(1145,424)"/>
<path d="M0 0 C0.99 0 1.98 0 3 0 C3.268125 0.7425 3.53625 1.485 3.8125 2.25 C4.94229421 4.86636554 6.20893202 6.80187111 8 9 C7.67 9.66 7.34 10.32 7 11 C6.01216806 9.92456217 5.03506057 8.83926783 4.0625 7.75 C3.51722656 7.14671875 2.97195312 6.5434375 2.41015625 5.921875 C0.93787201 3.91532695 0.42470811 2.42997551 0 0 Z " fill="#E7C248" transform="translate(155,474)"/>
<path d="M0 0 C0.66 0.33 1.32 0.66 2 1 C-1 4 -4 7 -7 10 C-6.52048204 5.68433833 -5.29764982 3.7980059 -2 1 C-1.34 0.67 -0.68 0.34 0 0 Z " fill="#E4B92D" transform="translate(1135,340)"/>
<path d="M0 0 C1.32 0.33 2.64 0.66 4 1 C-0.02167317 3.96837781 -3.00088076 5.52389341 -8 6 C-8 5.34 -8 4.68 -8 4 C-4.535 3.505 -4.535 3.505 -1 3 C-0.67 2.01 -0.34 1.02 0 0 Z " fill="#CF9824" transform="translate(592,857)"/>
<path d="M0 0 C0.33 0 0.66 0 1 0 C1.66 4.62 2.32 9.24 3 14 C-0.55404437 10.44595563 -0.65656348 8.89397038 -1 4 C-0.5625 1.5625 -0.5625 1.5625 0 0 Z " fill="#E7C141" transform="translate(155,233)"/>
<path d="M0 0 C0.66 0.33 1.32 0.66 2 1 C-0.97 3.64 -3.94 6.28 -7 9 C-7 6 -7 6 -5.1875 3.9375 C-3 2 -3 2 0 0 Z " fill="#C68F18" transform="translate(1276,547)"/>
<path d="M0 0 C0.66 0 1.32 0 2 0 C1.82374165 2.37948772 1.30280227 3.70225849 -0.40234375 5.37890625 C-1.90649092 6.62115486 -3.45129851 7.81376056 -5 9 C-5.66 8.67 -6.32 8.34 -7 8 C-6.01 7.67 -5.02 7.34 -4 7 C-3.67 6.01 -3.34 5.02 -3 4 C-2.34 3.67 -1.68 3.34 -1 3 C-0.67 2.01 -0.34 1.02 0 0 Z " fill="#C38C1B" transform="translate(600,408)"/>
<path d="M0 0 C1.670625 0.061875 1.670625 0.061875 3.375 0.125 C3.375 0.455 3.375 0.785 3.375 1.125 C2.01375 1.5271875 2.01375 1.5271875 0.625 1.9375 C-2.33971963 3.02076294 -4.2419754 4.10859457 -6.625 6.125 C-5.71577947 1.57889733 -4.95184304 0.17075321 0 0 Z " fill="#CB8F15" transform="translate(1160.625,655.875)"/>
<path d="M0 0 C0.66 0.33 1.32 0.66 2 1 C0.90716423 2.03295436 -0.19970579 3.05107835 -1.3125 4.0625 C-1.92738281 4.63097656 -2.54226563 5.19945312 -3.17578125 5.78515625 C-3.77777344 6.18605469 -4.37976562 6.58695313 -5 7 C-5.99 6.67 -6.98 6.34 -8 6 C-5.36 4.02 -2.72 2.04 0 0 Z " fill="#CB9520" transform="translate(1269,532)"/>
<path d="M0 0 C0 3 0 3 -2 5.1875 C-2.66 5.785625 -3.32 6.38375 -4 7 C-4 5.68 -4 4.36 -4 3 C-2 1.25 -2 1.25 0 0 Z " fill="#E5B320" transform="translate(1080,372)"/>
<path d="M0 0 C1.77706209 2.66559313 2.87548273 5.0280615 4 8 C2.0625 7.3125 2.0625 7.3125 0 6 C-0.8125 3.4375 -0.8125 3.4375 -1 1 C-0.67 0.67 -0.34 0.34 0 0 Z " fill="#E0B41D" transform="translate(1194,435)"/>
</svg>
