<?xml version="1.0" encoding="UTF-8"?>
<svg version="1.1" xmlns="http://www.w3.org/2000/svg" width="1536" height="1024">
<path d="M0 0 C506.88 0 1013.76 0 1536 0 C1536 337.92 1536 675.84 1536 1024 C1029.12 1024 522.24 1024 0 1024 C0 686.08 0 348.16 0 0 Z " fill="#FDFDFD" transform="translate(0,0)"/>
<path d="M0 0 C14.69087368 12.69763956 26.10662858 30.63242847 27.75537109 50.44238281 C28.48976543 72.18935681 24.22757237 92.06125687 9.1875 108.5625 C-2.53333562 120.82389386 -15.11227275 127.70358429 -31.4375 132.125 C-32.07187988 132.3007959 -32.70625977 132.4765918 -33.35986328 132.65771484 C-50.34234901 136.47727744 -67.92991315 130.79911465 -82.55078125 122.3359375 C-87.80130507 118.96603608 -92.13550337 114.6034192 -96.4375 110.125 C-97.02789062 109.54234375 -97.61828125 108.9596875 -98.2265625 108.359375 C-111.5721688 94.22873304 -117.04999425 73.46219867 -116.6875 54.4765625 C-115.1010047 33.20760991 -105.47780239 15.50416818 -90.203125 1.00390625 C-63.84983211 -21.67938109 -27.12308817 -20.7091276 0 0 Z " fill="#E60A16" transform="translate(575.4375,449.875)"/>
<path d="M0 0 C10.73690974 6.02845503 18.25972224 17.63692367 25.66064453 27.27099609 C26.92161407 28.89880985 28.20807498 30.50678523 29.49609375 32.11328125 C40.11278633 45.48182055 48.83559674 60.17831308 56.98388672 75.15283203 C57.93633194 76.88425936 58.92212732 78.59722257 59.91015625 80.30859375 C75.02246066 107.15077715 85.42134908 138.02375243 92 168 C92.17869629 168.80421387 92.35739258 169.60842773 92.54150391 170.43701172 C94.64884958 180.04856393 96.33911007 189.69056708 97.6875 199.4375 C97.80689941 200.30036621 97.92629883 201.16323242 98.04931641 202.05224609 C99.98758409 216.80944764 100.2781575 231.51131209 100.3125 246.375 C100.31511841 247.46003815 100.31773682 248.54507629 100.32043457 249.66299438 C100.32511108 267.80433944 99.12287326 285.11767085 96 303 C95.67205913 305.02065221 95.34519182 307.04147903 95.01953125 309.0625 C94.13135518 314.40112629 93.10948 319.70322923 92 325 C91.83983398 325.77649902 91.67966797 326.55299805 91.51464844 327.35302734 C86.21705998 352.31909778 76.87113252 376.96871732 66 400 C65.56719727 400.9192627 65.13439453 401.83852539 64.68847656 402.78564453 C51.30913098 430.92722642 34.43079396 456.4279475 14.1875 480.0625 C13.66043457 480.6819751 13.13336914 481.3014502 12.59033203 481.93969727 C3.27478756 492.67359144 3.27478756 492.67359144 -2.390625 493.23828125 C-8.47309728 493.39615963 -12.26995987 493.25703612 -17 489 C-20.75408991 484.68737476 -21.1126779 480.59055735 -21 475 C-19.51090208 469.24215469 -16.40952946 466.18428804 -12.234375 462.21484375 C-8.1122404 458.12874179 -4.59711145 453.54593216 -1 449 C-0.21753906 448.03449219 0.56492187 447.06898438 1.37109375 446.07421875 C8.68635107 436.86284674 14.92595323 427.0637486 21 417 C21.50853516 416.15872559 22.01707031 415.31745117 22.54101562 414.45068359 C39.17353576 386.70692145 50.49216155 357.13688563 59 326 C59.25410645 325.07670898 59.50821289 324.15341797 59.77001953 323.20214844 C75.65317426 264.0625077 71.32634032 197.44098903 51 140 C50.51708496 138.62134766 50.51708496 138.62134766 50.02441406 137.21484375 C39.53248407 107.52845095 25.30717899 79.00647893 6 54 C5.56381348 53.43071777 5.12762695 52.86143555 4.67822266 52.27490234 C-5.61585952 38.54173251 -5.61585952 38.54173251 -17.16015625 25.9140625 C-20.23587076 22.71427458 -21.28925781 20.04101649 -21.3125 15.625 C-21.15139029 9.84400443 -19.2886153 6.51990522 -15.5625 2.125 C-11.14032197 -1.29969426 -5.27268673 -0.99549424 0 0 Z " fill="#E50A16" transform="translate(1240,259)"/>
<path d="M0 0 C4.57870247 2.32916604 7.17186152 5.61853653 8.859375 10.3515625 C9.72120474 16.27664199 8.20556783 20.54309237 4.859375 25.3515625 C2.71848043 27.6733185 0.4779319 29.8526797 -1.80078125 32.0390625 C-5.65050554 35.84379836 -8.87621004 40.0423182 -12.140625 44.3515625 C-12.65286621 45.02509766 -13.16510742 45.69863281 -13.69287109 46.39257812 C-21.76372397 57.04306093 -29.34719971 67.84194359 -36.140625 79.3515625 C-36.50961914 79.96999023 -36.87861328 80.58841797 -37.25878906 81.22558594 C-48.18765505 99.64578033 -57.08667668 119.1405882 -64.140625 139.3515625 C-64.41213379 140.12886719 -64.68364258 140.90617188 -64.96337891 141.70703125 C-72.51261875 163.67862987 -77.19419805 186.33248531 -80.140625 209.3515625 C-80.22683609 209.99434647 -80.31304718 210.63713043 -80.40187073 211.2993927 C-81.17798408 217.53285983 -81.33317774 223.71116098 -81.37890625 229.98828125 C-81.38865479 231.09355667 -81.39840332 232.19883209 -81.40844727 233.33760071 C-81.57156691 256.61997379 -81.73068802 279.43445527 -77.140625 302.3515625 C-76.94275391 303.35364746 -76.74488281 304.35573242 -76.54101562 305.38818359 C-75.41802738 310.92407951 -74.1553602 316.41137528 -72.76416016 321.88574219 C-72.16180739 324.26779504 -71.59174386 326.65558762 -71.02734375 329.046875 C-66.04808898 349.60665878 -58.25109445 369.29854691 -49.140625 388.3515625 C-48.75825684 389.16399414 -48.37588867 389.97642578 -47.98193359 390.81347656 C-35.69796792 416.81274807 -19.73417392 440.23909496 -0.625 461.68554688 C-0.13515625 462.23533203 0.3546875 462.78511719 0.859375 463.3515625 C1.41109375 463.96837891 1.9628125 464.58519531 2.53125 465.22070312 C3.34335937 466.14399414 3.34335937 466.14399414 4.171875 467.0859375 C4.66300781 467.63991211 5.15414062 468.19388672 5.66015625 468.76464844 C8.47131213 472.48462263 8.32401286 476.89948702 7.859375 481.3515625 C5.90551579 486.69896664 2.94701213 489.80774393 -2.140625 492.3515625 C-4.53125 492.58984375 -4.53125 492.58984375 -7.390625 492.6640625 C-8.32390625 492.70144531 -9.2571875 492.73882813 -10.21875 492.77734375 C-22.74911705 490.95139454 -33.84761578 471.95393775 -41.140625 462.3515625 C-41.80529785 461.48821289 -41.80529785 461.48821289 -42.48339844 460.60742188 C-77.08477044 415.56750594 -100.09361664 359.93654712 -108.72119141 303.91455078 C-109.12800295 301.42869073 -109.62172888 298.97258368 -110.12109375 296.50390625 C-113.13038773 279.89570646 -113.51567386 263.05837404 -113.453125 246.2265625 C-113.45130219 245.2004184 -113.44947937 244.17427429 -113.44760132 243.11703491 C-113.39956801 226.99990347 -112.70996704 211.28900316 -110.140625 195.3515625 C-109.96901855 194.22911133 -109.79741211 193.10666016 -109.62060547 191.95019531 C-98.77760688 121.93097475 -67.65455759 57.92066977 -20.078125 5.6015625 C-19.612854 5.08779053 -19.14758301 4.57401855 -18.66821289 4.04467773 C-13.52020897 -1.55330979 -7.33801007 -2.22282787 0 0 Z " fill="#E50A16" transform="translate(308.140625,259.6484375)"/>
<path d="M0 0 C5.09549793 0.81254587 7.64072077 3.33439861 10.99609375 7.04296875 C13.14517366 11.50644241 13.63068351 15.54818284 12.62109375 20.41796875 C10.247738 24.4986606 7.45684741 27.78983849 4.18359375 31.16796875 C-22.89953705 60.67704812 -38.70009651 98.75407703 -47.37890625 137.41796875 C-47.65009277 138.61486328 -47.65009277 138.61486328 -47.92675781 139.8359375 C-50.66440623 152.65879969 -50.6593833 165.61592277 -50.69140625 178.66796875 C-50.69517273 179.51696747 -50.69893921 180.36596619 -50.70281982 181.24069214 C-50.73747235 196.66535292 -49.54737254 211.65071083 -46.12890625 226.73046875 C-45.8035791 228.18247681 -45.8035791 228.18247681 -45.47167969 229.66381836 C-37.01894359 266.45967278 -21.28391765 300.12693801 3.96484375 328.4375 C9.44024455 334.58122178 13.01316388 338.60356911 12.90234375 347.13671875 C12.31592987 351.89318686 9.4812591 354.64172197 6.05859375 357.73046875 C1.92030727 360.59543631 -1.42887927 360.90485665 -6.37890625 360.41796875 C-25.35008185 353.05778236 -39.72238451 323.88877599 -49.37890625 307.41796875 C-49.80300781 306.69528809 -50.22710937 305.97260742 -50.6640625 305.22802734 C-65.24551008 279.99322017 -74.53903802 251.0930677 -79.37890625 222.41796875 C-79.5284375 221.54285645 -79.67796875 220.66774414 -79.83203125 219.76611328 C-83.92039918 194.66758729 -84.81288033 167.0158878 -79.87939453 141.96582031 C-79.32034921 139.11987056 -78.81707328 136.26624843 -78.3125 133.41015625 C-71.61871734 96.67944207 -57.46867234 60.72139435 -35.37890625 30.41796875 C-34.97462402 29.85964355 -34.5703418 29.30131836 -34.15380859 28.72607422 C-12.71072043 -0.63812301 -12.71072043 -0.63812301 0 0 Z " fill="#E60B16" transform="translate(359.37890625,326.58203125)"/>
<path d="M0 0 C0.93328125 -0.03738281 1.8665625 -0.07476562 2.828125 -0.11328125 C13.57983112 1.45347806 22.36613357 15.5253859 28.625 23.75 C69.16296509 78.41672528 87.41751219 147.7471091 77.7265625 215.28515625 C69.98414367 264.66511732 50.70310625 309.84450588 18.3125 348.0625 C17.8285376 348.63516602 17.3445752 349.20783203 16.84594727 349.79785156 C8.88765198 358.99976018 8.88765198 358.99976018 3.359375 359.55078125 C-2.6951031 359.707933 -6.58908985 359.62384189 -11.25 355.3125 C-14.84101718 351.3623811 -14.75821229 347.13547363 -14.59375 342.0234375 C-13.86837737 336.30288519 -11.02128568 332.96277805 -6.95703125 329.06640625 C-3.45767007 325.60209786 -0.43040937 321.95133913 2.5 318 C3.00950195 317.31486328 3.51900391 316.62972656 4.04394531 315.92382812 C32.86763893 276.50711554 47.96062027 229.24626458 48 180.5625 C48.00100708 179.69800232 48.00201416 178.83350464 48.00305176 177.94281006 C47.99225279 164.21192757 47.39047395 150.8246928 44.75 137.3125 C44.60014648 136.54405762 44.45029297 135.77561523 44.29589844 134.98388672 C43.29400621 130.04143112 42.09793307 125.17132852 40.75 120.3125 C40.57243164 119.66829102 40.39486328 119.02408203 40.21191406 118.36035156 C30.88518595 85.22636025 14.50145062 55.09018523 -8.25 29.3125 C-13.27823162 23.45744296 -14.76096769 20.24457603 -14.7421875 12.44140625 C-13.94821069 7.39398225 -11.09877452 4.49078665 -7.25 1.3125 C-4.72101435 0.04800718 -2.82519546 0.07333158 0 0 Z " fill="#E60A16" transform="translate(1178.25,326.6875)"/>
<path d="M0 0 C0.75157883 -0.0049649 1.50315765 -0.00992981 2.2775116 -0.01504517 C4.76468827 -0.02965344 7.25180114 -0.03646684 9.73901367 -0.04199219 C11.46913149 -0.0477451 13.19924928 -0.05350281 14.92936707 -0.05926514 C18.55838315 -0.06977157 22.1873771 -0.07561646 25.81640625 -0.07910156 C30.46017248 -0.08458309 35.10364503 -0.10860524 39.74731922 -0.13707352 C43.32216742 -0.15572407 46.89694526 -0.1609068 50.471838 -0.16243744 C52.18341361 -0.16545945 53.89498812 -0.17347272 55.60651588 -0.18662262 C58.00482962 -0.20373263 60.40243075 -0.20179095 62.80078125 -0.1953125 C63.50385406 -0.20452728 64.20692688 -0.21374207 64.93130493 -0.22323608 C70.3779278 -0.17729195 74.46184422 1.13670458 78.44213867 4.91503906 C80.04911495 8.04728096 80.0282411 10.5930147 80.03198242 14.09863281 C80.05131836 15.30390625 80.0706543 16.50917969 80.09057617 17.75097656 C79.51325408 21.7194977 78.38427278 23.34017161 75.59448242 26.16113281 C72.95028125 27.4832334 70.91248627 27.32235403 67.95141602 27.36645508 C66.17980606 27.39637291 66.17980606 27.39637291 64.37240601 27.42689514 C63.0921756 27.44360764 61.81194519 27.46032013 60.49291992 27.47753906 C59.18618317 27.49832016 57.87944641 27.51910126 56.53311157 27.54051208 C53.05779342 27.59572575 49.5824159 27.64513807 46.10699463 27.69335938 C42.56110352 27.74357959 39.01529763 27.79921004 35.46948242 27.85449219 C28.51121421 27.96257783 21.55289946 28.06160585 14.59448242 28.16113281 C14.26448242 39.71113281 13.93448242 51.26113281 13.59448242 63.16113281 C18.68756836 63.09152344 18.68756836 63.09152344 23.88354492 63.02050781 C27.17991644 62.9892935 30.47627136 62.96501629 33.77270508 62.94140625 C36.05988968 62.92131765 38.3470231 62.89404153 40.6340332 62.859375 C43.92566577 62.81073723 47.216618 62.78813602 50.50854492 62.77050781 C51.52751862 62.74986267 52.54649231 62.72921753 53.59634399 62.70794678 C59.58579864 62.70606289 63.04711167 63.13985045 67.59448242 67.16113281 C70.07644121 71.22251992 70.03658069 75.53321048 69.59448242 80.16113281 C68.46748233 84.66913319 66.3576626 86.52690669 62.59448242 89.16113281 C60.19865896 90.35904454 58.72670705 90.28180721 56.05297852 90.2746582 C55.11215424 90.27458267 54.17132996 90.27450714 53.20199585 90.27442932 C52.18425079 90.26926804 51.16650574 90.26410675 50.11791992 90.25878906 C49.07753571 90.25737411 48.03715149 90.25595917 46.96524048 90.25450134 C43.63329221 90.24889148 40.30141047 90.23633729 36.96948242 90.22363281 C34.71427506 90.21861908 32.45906664 90.21405596 30.20385742 90.20996094 C24.66735267 90.19976855 19.13099225 90.18019501 13.59448242 90.16113281 C13.59448242 102.37113281 13.59448242 114.58113281 13.59448242 127.16113281 C17.86772461 127.11472656 22.1409668 127.06832031 26.54370117 127.02050781 C29.95689679 126.99477321 33.3700649 126.97308592 36.78330231 126.95413208 C40.3832403 126.93303299 43.98279993 126.90485161 47.58251953 126.859375 C51.05144294 126.8158264 54.52000007 126.791977 57.9891758 126.78162384 C59.95292375 126.77066561 61.91652489 126.73945356 63.88005066 126.70794678 C65.08091812 126.70764465 66.28178558 126.70734253 67.51904297 126.70703125 C68.57383347 126.6981488 69.62862396 126.68926636 70.71537781 126.68011475 C74.32073854 127.28246995 75.97165951 128.67097961 78.59448242 131.16113281 C81.7943162 135.84903519 81.32581536 141.73768363 80.59448242 147.16113281 C78.96478525 150.39023538 76.87299077 152.52187864 73.59448242 154.16113281 C70.99710349 154.2749727 68.4259096 154.32895486 65.82763672 154.33813477 C65.02582977 154.34470596 64.22402283 154.35127716 63.3979187 154.35804749 C60.73817862 154.37779642 58.07849505 154.38944654 55.41870117 154.39941406 C54.05725951 154.40552735 54.05725951 154.40552735 52.66831398 154.41176414 C47.86449027 154.4326316 43.06069519 154.44693044 38.25683594 154.45629883 C33.29338297 154.46736527 28.33037807 154.50176586 23.36708355 154.54147053 C19.5520799 154.56760807 15.73718348 154.57598811 11.92209816 154.57958031 C10.09245591 154.58445361 8.26281869 154.59608875 6.43326378 154.6146183 C3.87165134 154.63894947 1.31120418 154.63805604 -1.25048828 154.63110352 C-2.38297752 154.6503186 -2.38297752 154.6503186 -3.53834534 154.66992188 C-7.07016991 154.63500471 -9.23353801 154.26348945 -12.29020691 152.44425964 C-15.97244183 148.46989811 -16.65468648 144.71854317 -16.68640137 139.40591431 C-16.7035318 137.68166985 -16.7035318 137.68166985 -16.7210083 135.92259216 C-16.72324402 134.67051468 -16.72547974 133.41843719 -16.7277832 132.12841797 C-16.73704735 130.78929604 -16.74709772 129.45017935 -16.75787354 128.11106873 C-16.78404672 124.48084719 -16.7969961 120.85069951 -16.80589485 117.22039843 C-16.81176709 114.95038271 -16.81997861 112.68038695 -16.8289032 110.41038132 C-16.85623042 103.30209534 -16.87557605 96.19385524 -16.88330698 89.08552039 C-16.89227003 80.89043711 -16.92738214 72.69602075 -16.98530817 64.50114024 C-17.02857858 58.15871817 -17.04871737 51.81648353 -17.05138922 45.47391546 C-17.05348232 41.68910183 -17.06523122 37.90491607 -17.10102844 34.12025833 C-17.13405697 30.55931179 -17.13827137 26.99946285 -17.12075043 23.43841743 C-17.11848267 21.51577377 -17.14586689 19.593166 -17.17425537 17.67073059 C-17.11134104 11.14598529 -16.69320927 7.05298914 -11.98592377 2.32275963 C-8.32970824 -0.36462418 -4.31981965 0.00680953 0 0 Z " fill="#E60C17" transform="translate(993.405517578125,429.8388671875)"/>
<path d="M0 0 C1.20527344 -0.01675781 2.41054688 -0.03351563 3.65234375 -0.05078125 C8.13054061 0.42627752 10.64487161 2.03663445 13.9375 5 C16.08428819 9.41284238 14.30883435 14.50531415 12.93701172 19.00048828 C12.46417438 20.29782667 11.98202589 21.59179725 11.4921875 22.8828125 C11.22336761 23.6125528 10.95454773 24.34229309 10.67758179 25.09414673 C9.77237704 27.5450388 8.85494816 29.99116729 7.9375 32.4375 C7.28146522 34.20577241 6.626217 35.9743368 5.97167969 37.74316406 C4.50573458 41.70002823 3.03433395 45.6548128 1.55957031 49.60839844 C-0.94488151 56.32585293 -3.4327674 63.0493908 -5.91883469 69.77366257 C-8.17327895 75.87059928 -10.4302319 81.96660829 -12.6875 88.0625 C-12.92737892 88.71032692 -13.16725784 89.35815384 -13.41440582 90.02561188 C-16.43847529 98.19107856 -19.4758577 106.35141759 -22.52368164 114.50805664 C-23.75070207 117.80109815 -24.95962746 121.10054741 -26.16488266 124.40160751 C-27.14264922 127.07329558 -28.13031107 129.7412604 -29.11985016 132.40860748 C-29.80807509 134.27378712 -30.48391033 136.14352376 -31.15936279 138.0133667 C-36.15520529 151.42135265 -36.15520529 151.42135265 -41.9375 154.3125 C-45.86874675 154.60849687 -49.8089177 154.59052989 -53.75 154.625 C-54.84376953 154.65400391 -55.93753906 154.68300781 -57.06445312 154.71289062 C-65.00372758 154.77578555 -65.00372758 154.77578555 -68.9765625 152.8046875 C-71.61217693 149.45504208 -73.02812029 146.10407831 -74.5 142.125 C-74.83386719 141.2582666 -75.16773438 140.3915332 -75.51171875 139.49853516 C-79.12185164 130.03654566 -82.52299518 120.49375905 -85.96020508 110.96777344 C-90.08398413 99.55763354 -94.35929109 88.20900523 -98.6875 76.875 C-99.3574359 75.11727423 -100.02735773 73.35954309 -100.69726562 71.60180664 C-103.89387475 63.22392437 -107.11035727 54.85431283 -110.36627197 46.49928284 C-111.86877821 42.63971048 -113.3626376 38.77681979 -114.85559082 34.9135437 C-115.57086217 33.06998284 -116.29043752 31.22808548 -117.01452637 29.38796997 C-118.02028099 26.83163299 -119.01154168 24.27009619 -120 21.70703125 C-120.29916321 20.95786438 -120.59832642 20.20869751 -120.90655518 19.43682861 C-122.62683597 14.92442055 -123.40842806 11.21872793 -122.9375 6.3125 C-120.94390097 3.28744789 -119.45473746 1.64950688 -115.84033203 0.84667969 C-113.37277813 0.63731148 -110.97536006 0.63033233 -108.5 0.6875 C-107.66662109 0.66816406 -106.83324219 0.64882813 -105.97460938 0.62890625 C-104.75161133 0.63857422 -104.75161133 0.63857422 -103.50390625 0.6484375 C-102.77115479 0.65407715 -102.03840332 0.6597168 -101.28344727 0.66552734 C-97.68936666 1.65671411 -95.2965445 3.51118963 -92.9375 6.3125 C-91.19869611 9.5091139 -90.00181311 12.84272668 -88.79296875 16.26953125 C-88.42549026 17.26516083 -88.05801178 18.26079041 -87.67939758 19.28659058 C-86.47668823 22.55982585 -85.30064973 25.84195897 -84.125 29.125 C-83.2943472 31.40325371 -82.46229766 33.68099861 -81.62890625 35.95825195 C-79.03616424 43.06604419 -76.4824009 50.18745978 -73.9375 57.3125 C-73.52324768 58.47100464 -73.10899536 59.62950928 -72.68218994 60.82312012 C-68.21158599 73.3321736 -63.76809107 85.8506494 -59.3841095 98.39035034 C-57.63212078 103.38987323 -55.81470559 108.35856579 -53.9375 113.3125 C-52.24791173 110.7781176 -51.34187527 108.95059206 -50.35620117 106.13696289 C-50.05748611 105.29108612 -49.75877106 104.44520935 -49.45100403 103.57369995 C-49.13072739 102.65348053 -48.81045074 101.73326111 -48.48046875 100.78515625 C-48.14105759 99.8211087 -47.80164642 98.85706116 -47.45195007 97.86380005 C-46.72064679 95.78550549 -45.99118667 93.70656165 -45.2633667 91.62704468 C-43.34685108 86.15201239 -41.4166081 80.68181846 -39.48828125 75.2109375 C-39.10164307 74.11281235 -38.71500488 73.01468719 -38.31665039 71.88328552 C-33.60863833 58.52065341 -28.79948457 45.19508737 -23.95535278 31.88128662 C-22.52485553 27.9458488 -21.11591741 24.00344718 -19.72265625 20.0546875 C-19.40248535 19.1572583 -19.08231445 18.2598291 -18.75244141 17.33520508 C-18.19886699 15.78307113 -17.65203023 14.22850223 -17.11474609 12.6706543 C-15.38218543 7.85712816 -13.35071567 4.03029438 -9.12109375 1.01953125 C-6.03871406 0.02147987 -3.23428064 0.01035522 0 0 Z " fill="#E70B16" transform="translate(948.9375,429.6875)"/>
<path d="M0 0 C0.74611542 0.08797852 1.49223083 0.17595703 2.26095581 0.26660156 C14.27650642 1.69889973 26.04923796 3.69202361 37.80541992 6.59985352 C40.05776985 7.14496664 42.317198 7.66091055 44.5793457 8.16381836 C54.88866834 10.46461947 64.83732435 13.40990978 74.8125 16.875 C75.56768921 17.13539063 76.32287842 17.39578125 77.10095215 17.6640625 C90.73360881 22.38468406 103.84433802 27.84502653 116.75 34.3125 C117.71824707 34.79187012 118.68649414 35.27124023 119.68408203 35.76513672 C161.2357245 56.44210663 200.51596814 85.920898 230.75 121.3125 C231.64238203 122.33017055 232.53568697 123.34703222 233.4296875 124.36328125 C244.97345484 137.55506699 255.3203677 151.53901 264.75 166.3125 C265.45253906 167.40949219 266.15507813 168.50648438 266.87890625 169.63671875 C274.64358075 182.05804707 281.11878513 195.2640567 287.75 208.3125 C288.13824951 209.05024658 288.52649902 209.78799316 288.92651367 210.5480957 C290.44032685 213.79159639 289.67266069 216.95924809 288.75 220.3125 C287.04352082 223.08552867 285.7781123 224.0184791 282.66015625 224.91015625 C278.82553283 225.56733797 276.7630852 225.88206128 273.26953125 223.91796875 C269.74266425 220.27080551 267.98974872 216.1977331 265.875 211.625 C251.55931888 181.9416709 232.65509377 154.85370496 210.08984375 130.86328125 C207.75 128.3125 207.75 128.3125 205.6640625 125.67578125 C203.945755 123.5541975 202.28407612 121.9172885 200.1875 120.1875 C196.75393476 117.26261109 193.59058729 114.16265786 190.4375 110.9375 C185.19317595 105.62382802 179.63626887 100.89967961 173.75 96.3125 C173.12319336 95.81991699 172.49638672 95.32733398 171.85058594 94.81982422 C162.11225112 87.18022838 152.20644685 79.93887069 141.75 73.3125 C141.17668945 72.94737305 140.60337891 72.58224609 140.01269531 72.20605469 C100.06418197 46.96945844 56.11788737 31.49704961 9.75 23.3125 C8.26234131 23.03756714 8.26234131 23.03756714 6.74462891 22.75708008 C-1.40909185 21.30196066 -9.50853036 20.71873383 -17.77734375 20.36523438 C-24.30324684 19.9443428 -27.77317495 19.20107317 -32.25 14.3125 C-33.85086627 11.11076746 -33.74917089 7.78672941 -33.25 4.3125 C-26.48648937 -6.28366666 -10.84089961 -1.29986878 0 0 Z " fill="#ED0C18" transform="translate(813.25,114.6875)"/>
<path d="M0 0 C3.64051176 0.81120099 5.09653944 2.45526886 7.15625 5.48046875 C8.61905471 11.20058715 7.69629073 14.60406241 4.90625 19.60546875 C4.36097656 20.63027344 4.36097656 20.63027344 3.8046875 21.67578125 C3.01213552 23.16514067 2.21303779 24.65103107 1.40820312 26.13378906 C0.13657844 28.51734141 -1.07017376 30.92509254 -2.265625 33.34765625 C-14.99256915 58.87280955 -31.93885955 82.18560421 -50.84375 103.48046875 C-51.66746094 104.41632813 -52.49117187 105.3521875 -53.33984375 106.31640625 C-65.54064817 119.90669386 -78.34698673 133.33406855 -92.84375 144.48046875 C-93.84792969 145.32480469 -94.85210938 146.16914062 -95.88671875 147.0390625 C-144.44040329 187.7628741 -204.11517805 211.79480385 -265.84375 223.48046875 C-267.20886719 223.7436792 -267.20886719 223.7436792 -268.6015625 224.01220703 C-278.06976932 225.80604637 -287.53953886 226.86006015 -297.15625 227.48046875 C-298.12997559 227.55885986 -299.10370117 227.63725098 -300.10693359 227.71801758 C-304.55925432 227.9375531 -307.80590194 228.0547222 -311.4375 225.2578125 C-314.39382774 221.84555759 -314.92288831 220.07136418 -315.15625 215.703125 C-314.60846499 211.80700409 -312.68273983 210.12138952 -309.84375 207.48046875 C-307.13008276 206.12363513 -304.73995727 206.13875086 -301.7109375 205.90234375 C-299.8074353 205.74318481 -299.8074353 205.74318481 -297.86547852 205.58081055 C-297.189617 205.52436371 -296.51375549 205.46791687 -295.81741333 205.40975952 C-281.20023714 204.16100049 -267.12592836 201.89450629 -252.84375 198.48046875 C-250.88808737 198.0335629 -248.93235759 197.58695079 -246.9765625 197.140625 C-199.01794696 185.93619023 -153.56196993 165.06374354 -114.84375 134.48046875 C-114.24820313 134.01350586 -113.65265625 133.54654297 -113.0390625 133.06542969 C-102.82315358 125.02911981 -93.18454234 116.51559022 -83.84375 107.48046875 C-83.25932129 106.9179541 -82.67489258 106.35543945 -82.07275391 105.77587891 C-75.63420884 99.55405905 -69.56997373 93.23004082 -64.00390625 86.19921875 C-61.76393382 83.38001294 -59.43481114 80.65359076 -57.09375 77.91796875 C-40.92143084 58.47119239 -27.79071923 37.08733763 -16.59985352 14.45336914 C-9.07511838 -0.5596323 -9.07511838 -0.5596323 0 0 Z " fill="#DB0913" transform="translate(1094.84375,675.51953125)"/>
<path d="M0 0 C2.6790573 4.01858595 2.69610694 7.27641721 2 12 C0.20606332 14.87029869 -0.98263276 16.49131638 -4 18 C-6.16449715 18.28167859 -8.33532864 18.51512784 -10.5078125 18.7265625 C-11.88465341 18.86745034 -13.2613571 19.00968404 -14.63793945 19.15307617 C-15.73315414 19.26696182 -15.73315414 19.26696182 -16.85049438 19.38314819 C-103.09508948 28.55367343 -188.48472719 71.21510267 -244.0625 138.875 C-245.38365554 140.57664834 -246.69594138 142.28521426 -248 144 C-248.846231 145.05947582 -249.69538013 146.11662508 -250.546875 147.171875 C-267.16676204 167.84278525 -281.25165197 190.00741657 -292.36157227 214.13354492 C-296.16634463 222.1511464 -296.16634463 222.1511464 -301 224 C-305.26948503 224.53368563 -307.2418138 224.49446926 -310.875 222.125 C-313.75226969 219.24773031 -313.96400404 218.48286016 -314.2734375 214.33203125 C-314.20757063 209.89799299 -312.73982951 206.52537679 -310.625 202.6875 C-310.08806519 201.66934204 -310.08806519 201.66934204 -309.5402832 200.63061523 C-308.77002849 199.17256818 -307.99321384 197.71797094 -307.21044922 196.26660156 C-305.98474733 193.97143894 -304.80253517 191.65811161 -303.62890625 189.3359375 C-288.97565893 160.53819509 -269.01596767 132.24923828 -245.7265625 109.7265625 C-244.03658041 108.03658041 -242.51892287 106.28132616 -241 104.4375 C-238.38536362 101.32914239 -235.52939967 98.74677893 -232.43359375 96.125 C-230.56493219 94.49329552 -228.76302189 92.8393098 -226.97265625 91.125 C-218.14883696 82.6929769 -208.83317748 75.22123971 -199 68 C-198.3915625 67.55027832 -197.783125 67.10055664 -197.15625 66.63720703 C-166.75068622 44.23176787 -32.99551422 -24.74663566 0 0 Z " fill="#ED0D19" transform="translate(747,116)"/>
<path d="M0 0 C4.57321198 2.84147019 6.5625828 6.42885757 8.75 11.1875 C9.44906078 12.63612215 10.14963111 14.08401663 10.8515625 15.53125 C11.20766602 16.27375 11.56376953 17.01625 11.93066406 17.78125 C18.78682965 32.00701092 27.00911632 45.02606426 36 58 C36.7321875 59.06089844 37.464375 60.12179687 38.21875 61.21484375 C44.06909642 69.4573869 50.55546315 77.22026376 57 85 C57.49516113 85.60247559 57.99032227 86.20495117 58.50048828 86.82568359 C69.05784065 99.63689295 80.50433602 111.81350555 93.5859375 122.078125 C95.85041315 123.88091144 97.94863104 125.7748792 100.0625 127.75 C107.18623446 134.14734294 115.16781153 139.51729732 123 145 C123.64243652 145.45165527 124.28487305 145.90331055 124.94677734 146.36865234 C154.86803737 167.27409014 188.85238568 183.1863167 224 193 C224.82967285 193.2367041 225.6593457 193.4734082 226.51416016 193.71728516 C243.33964005 198.47932723 260.25679364 201.8119093 277.63671875 203.76953125 C279.26589233 203.9557605 279.26589233 203.9557605 280.92797852 204.14575195 C283.00351722 204.37573337 285.08087459 204.59004337 287.15991211 204.78588867 C292.87985807 205.40422145 296.57780561 206.23026052 301 210 C302.73631636 213.47263273 302.60190402 217.21193013 302 221 C299.81840855 223.75569447 298.12822506 225.43588747 295 227 C288.0810348 227.48003999 281.22436622 226.7351411 274.375 225.8125 C273.3842749 225.68012939 272.3935498 225.54775879 271.37280273 225.41137695 C260.12640244 223.83558914 249.06621726 221.52803502 238 219 C237.01918457 218.77973145 236.03836914 218.55946289 235.02783203 218.33251953 C203.60383134 211.19800198 173.11905308 199.7617207 145 184 C144.21818359 183.56574707 143.43636719 183.13149414 142.63085938 182.68408203 C122.10168073 171.23576052 103.0395504 158.06977407 85 143 C83.50146484 141.78183594 83.50146484 141.78183594 81.97265625 140.5390625 C74.08148945 134.03700884 66.78646805 126.974869 59.5625 119.75 C59.09000824 119.27841461 58.61751648 118.80682922 58.13070679 118.32095337 C49.14830365 109.33659698 40.95219028 99.90074022 33 90 C32.26265625 89.0925 31.5253125 88.185 30.765625 87.25 C14.48606181 66.7093431 0.67510741 44.03756355 -10.8125 20.5 C-11.14443359 19.83621338 -11.47636719 19.17242676 -11.81835938 18.48852539 C-13.84092962 14.17611669 -14.46703697 10.73956038 -14 6 C-10.39432339 0.47129586 -6.60551903 -1.29730013 0 0 Z " fill="#DC0913" transform="translate(447,676)"/>
<path d="M0 0 C17.2989291 9.37947051 27.16108678 37.19797143 33 55 C33.36480469 56.0621875 33.72960938 57.124375 34.10546875 58.21875 C47.36027231 100.06533288 41.84155837 146.24944114 22.17675781 185.12304688 C8.45466936 211.37286981 8.45466936 211.37286981 -2 215 C-6.98334179 215.6342435 -10.282378 214.92616857 -14.42578125 212.25390625 C-18.306271 209.16299506 -20.14863848 205.52238776 -21.125 200.75 C-21.53852832 194.69836605 -18.31386841 190.79820531 -15 186 C-5.12247151 170.72567671 1.48588 155.61433869 6 138 C6.18079102 137.29681641 6.36158203 136.59363281 6.54785156 135.86914062 C14.45146066 103.53190896 7.85637349 65.71946217 -9.07763672 37.18408203 C-11.91801641 32.66089675 -15.01328062 28.32437336 -18.203125 24.04296875 C-21.0944595 19.14655662 -20.74995902 14.52242552 -20 9 C-15.91773621 0.38188755 -9.0373862 -1.59188356 0 0 Z " fill="#E60B17" transform="translate(1134,400)"/>
<path d="M0 0 C3.375 1.6875 3.375 1.6875 6 4 C6.78375 4.680625 7.5675 5.36125 8.375 6.0625 C10.94403643 10.7065274 11.00963346 14.82903943 10 20 C8.0908097 23.98683858 5.60350267 27.4386529 3 31 C-6.13642801 44.23276057 -11.70807164 58.29118222 -15.47998047 73.86083984 C-15.952685 75.8053643 -16.46074487 77.74120851 -16.97265625 79.67578125 C-21.33650605 98.57226572 -20.69626566 120.19384004 -16 139 C-15.80132324 139.80195801 -15.60264648 140.60391602 -15.39794922 141.43017578 C-12.32902175 153.40014234 -8.01986025 164.22406896 -2 175 C-1.36449219 176.14855469 -0.72898437 177.29710937 -0.07421875 178.48046875 C2.67217006 183.30870262 5.49933824 187.68300745 9 192 C10.99111315 195.9822263 10.51953609 200.67053258 10 205 C8.21678414 209.4540414 5.74820012 211.57047771 1.625 213.9375 C-3.68438717 215.49369969 -7.77916495 215.93395333 -12.8125 213.4375 C-32.68635815 199.69045746 -43.76274645 163.64282366 -48 141 C-48.14953125 140.22382324 -48.2990625 139.44764648 -48.453125 138.64794922 C-56.50085419 95.43476544 -47.87564845 50.14161311 -23.14599609 13.66113281 C-16.6927316 4.30706132 -12.19157752 -1.76122308 0 0 Z " fill="#E70C17" transform="translate(412,400)"/>
<path d="M0 0 C1.21139648 -0.04350586 1.21139648 -0.04350586 2.44726562 -0.08789062 C6.4484803 -0.1304916 8.6379781 -0.01721314 12.13671875 2.08203125 C15.45800681 5.69432741 16.43841305 8.38336855 16.42800903 13.27325439 C16.43075836 14.27162323 16.43350769 15.26999207 16.43634033 16.2986145 C16.42914978 17.38762054 16.42195923 18.47662659 16.41455078 19.59863281 C16.41484283 20.75013824 16.41513489 21.90164368 16.41543579 23.08804321 C16.41404153 26.89731357 16.39847553 30.70638877 16.3828125 34.515625 C16.37908272 37.15549615 16.37623558 39.79536868 16.37423706 42.4352417 C16.36802292 48.6754356 16.35161302 54.91555936 16.33153808 61.15572238 C16.30917701 68.26086958 16.29818513 75.36602015 16.28814721 82.47119379 C16.26724672 97.0849987 16.23207203 111.69874837 16.1875 126.3125 C16.8757486 126.30583817 17.56399719 126.29917633 18.27310181 126.29231262 C25.44325077 126.22588744 32.61331216 126.18066931 39.78369141 126.14770508 C42.45899721 126.13432449 45.13382149 126.11216615 47.80908203 126.08618164 C51.65663751 126.04974916 55.50386586 126.03276172 59.3515625 126.01953125 C61.14250839 125.99630547 61.14250839 125.99630547 62.96963501 125.97261047 C73.47538499 125.97048635 73.47538499 125.97048635 78.1875 129.3125 C81.76132952 134.19673368 82.05084021 139.46835086 81.1875 145.3125 C79.14249507 149.40250987 77.47405488 151.74047251 73.1875 153.3125 C70.54854447 153.50780925 68.01562883 153.5960493 65.37719727 153.5871582 C64.59460541 153.59226913 63.81201355 153.59738007 63.00570679 153.60264587 C60.42169523 153.61653288 57.83795066 153.61558581 55.25390625 153.61328125 C53.45556031 153.61716863 51.65721529 153.62150339 49.85887146 153.62626648 C46.09037296 153.63372674 42.32196814 153.63343879 38.5534668 153.62817383 C33.72688679 153.622379 28.90069049 153.63931138 24.07417393 153.6625185 C20.36038474 153.67725814 16.64668793 153.67812724 12.93287468 153.67500877 C11.15349505 153.67552186 9.37411023 153.68075715 7.59475899 153.69082069 C5.10531887 153.70317254 2.61662564 153.69640129 0.12719727 153.68481445 C-0.605952 153.69245819 -1.33910126 153.70010193 -2.09446716 153.70797729 C-6.49977911 153.66271145 -9.36243712 153.11098518 -12.8125 150.3125 C-14.90412484 147.0377705 -15.06732332 144.39371785 -15.07992554 140.55018616 C-15.08845551 139.37393173 -15.09698547 138.19767731 -15.10577393 136.98577881 C-15.10486755 135.69891174 -15.10396118 134.41204468 -15.10302734 133.08618164 C-15.10901304 131.7144077 -15.11581868 130.34263712 -15.12338257 128.97087097 C-15.14104408 125.24773233 -15.14573796 121.52468563 -15.14701414 117.80150914 C-15.14843603 115.47506393 -15.15270629 113.14864209 -15.15800858 110.82220268 C-15.17650819 102.70510245 -15.18467913 94.58806788 -15.18310547 86.47094727 C-15.18190355 78.90572437 -15.20301579 71.34078653 -15.2345928 63.77563578 C-15.2607443 57.27870182 -15.27147327 50.78186105 -15.27019465 44.28487486 C-15.26968475 40.40525409 -15.27538327 36.52588676 -15.29655075 32.64631844 C-15.31591486 28.99774187 -15.31607065 25.34966102 -15.30151749 21.70106697 C-15.29842955 19.7256035 -15.31511796 17.75014007 -15.33239746 15.77474976 C-15.32400848 14.59567551 -15.31561951 13.41660126 -15.30697632 12.20179749 C-15.30806585 11.17919358 -15.30915539 10.15658968 -15.31027794 9.10299778 C-14.67949294 5.56687455 -13.26726406 3.88486662 -10.8125 1.3125 C-7.44636353 -0.37056823 -3.69816492 0.04364475 0 0 Z " fill="#E40C17" transform="translate(678.8125,430.6875)"/>
<path d="M0 0 C1.83498047 -0.03867187 1.83498047 -0.03867187 3.70703125 -0.078125 C8.62277241 0.38531188 10.96128592 1.94380689 14.29955292 5.49981022 C16.48423843 8.68226158 16.68970873 10.23322902 16.69543457 14.0499115 C16.71235352 15.78894493 16.71235352 15.78894493 16.72961426 17.56311035 C16.72151733 18.82610962 16.71342041 20.08910889 16.70507812 21.39038086 C16.71050142 22.74097955 16.71762526 24.09157233 16.72631836 25.44215393 C16.74453214 29.10344891 16.7374921 32.76429232 16.72480202 36.42559505 C16.71466204 40.26116432 16.72407065 44.09669541 16.73034668 47.93226624 C16.73762109 54.37410407 16.72804184 60.8157584 16.70898438 67.25756836 C16.68722512 74.69842275 16.69426069 82.13883856 16.71629 89.57968229 C16.73446103 95.97391726 16.73699376 102.36802044 16.72653532 108.76227289 C16.7203085 112.57872455 16.71944202 116.3949703 16.73268127 120.21140862 C16.74426381 123.80095431 16.73617107 127.38993658 16.71310425 130.97942162 C16.70531947 132.92006029 16.71715326 134.8607468 16.72961426 136.80136108 C16.66748224 143.20320544 16.62025343 147.43774562 12.1875 152.25 C8.68074818 154.95230764 4.50689308 154.61723903 0.25 154.625 C-0.45318359 154.64949219 -1.15636719 154.67398438 -1.88085938 154.69921875 C-5.43551333 154.71920743 -7.61851705 154.3652843 -10.69140625 152.5390625 C-14.37719214 148.56140038 -15.06163773 144.81263247 -15.09338379 139.49478149 C-15.11051422 137.77053703 -15.11051422 137.77053703 -15.12799072 136.01145935 C-15.13022644 134.75938187 -15.13246216 133.50730438 -15.13476562 132.21728516 C-15.14402977 130.87816322 -15.15408014 129.53904653 -15.16485596 128.19993591 C-15.19102915 124.56971438 -15.20397853 120.93956669 -15.21287727 117.30926561 C-15.21874952 115.03924989 -15.22696103 112.76925414 -15.23588562 110.4992485 C-15.26321285 103.39096252 -15.28255847 96.28272243 -15.2902894 89.17438757 C-15.29925245 80.9793043 -15.33436456 72.78488793 -15.39229059 64.59000742 C-15.43556101 58.24758536 -15.45569979 51.90535071 -15.45837164 45.56278265 C-15.46046474 41.77796902 -15.47221364 37.99378326 -15.50801086 34.20912552 C-15.5410394 30.64817898 -15.54525379 27.08833003 -15.52773285 23.52728462 C-15.5254651 21.60464096 -15.55284931 19.68203319 -15.58123779 17.75959778 C-15.51785989 11.1867764 -15.09344041 7.12710863 -10.29524994 2.41162682 C-6.97175288 -0.19209159 -4.14867397 0.05212993 0 0 Z " fill="#E60B16" transform="translate(793.8125,429.75)"/>
<path d="M0 0 C0.66 0.33 1.32 0.66 2 1 C-2.29 5.29 -6.58 9.58 -11 14 C-11.66 13.67 -12.32 13.34 -13 13 C-8.96476648 8.18876004 -4.95532767 3.86757281 0 0 Z " fill="#F0151E" transform="translate(488,449)"/>
<path d="M0 0 C1.28132812 0.00902344 2.56265625 0.01804687 3.8828125 0.02734375 C4.87023437 0.03894531 5.85765625 0.05054688 6.875 0.0625 C6.875 1.0525 6.875 2.0425 6.875 3.0625 C4.77111431 3.11652274 2.66683286 3.15530256 0.5625 3.1875 C-1.19513672 3.22230469 -1.19513672 3.22230469 -2.98828125 3.2578125 C-6.125 3.0625 -6.125 3.0625 -9.125 1.0625 C-6.12186252 -0.43906874 -3.33432478 -0.03031204 0 0 Z " fill="#F2464D" transform="translate(794.125,429.9375)"/>
<path d="M0 0 C0.33 0.99 0.66 1.98 1 3 C0.34 3 -0.32 3 -1 3 C-1.2475 3.556875 -1.495 4.11375 -1.75 4.6875 C-3.88279838 8.63317701 -6.75803677 11.92013493 -10 15 C-8.67494706 8.5403669 -4.40590065 4.61082626 0 0 Z " fill="#E02127" transform="translate(1174,653)"/>
<path d="M0 0 C0.33 0.66 0.66 1.32 1 2 C-0.21574224 3.63506773 -1.44819513 5.2577186 -2.6875 6.875 C-3.37199219 7.77992188 -4.05648438 8.68484375 -4.76171875 9.6171875 C-7.09918116 12.10558552 -8.77089231 13.01599871 -12 14 C-8 9.33333333 -4 4.66666667 0 0 Z " fill="#D6181F" transform="translate(1235,713)"/>
<path d="M0 0 C1.28132812 0.00902344 2.56265625 0.01804687 3.8828125 0.02734375 C4.87023437 0.03894531 5.85765625 0.05054688 6.875 0.0625 C5.14108617 2.22418863 4.2866129 2.99953947 1.5 3.42578125 C0.63375 3.40902344 -0.2325 3.39226562 -1.125 3.375 C-1.99125 3.37113281 -2.8575 3.36726563 -3.75 3.36328125 C-6.125 3.0625 -6.125 3.0625 -9.125 1.0625 C-6.12186252 -0.43906874 -3.33432478 -0.03031204 0 0 Z " fill="#F34C50" transform="translate(949.125,429.9375)"/>
<path d="M0 0 C0.66 0.33 1.32 0.66 2 1 C-1.3 4.3 -4.6 7.6 -8 11 C-8.99 10.67 -9.98 10.34 -11 10 C-5.555 5.05 -5.555 5.05 0 0 Z " fill="#EF1F27" transform="translate(515,212)"/>
<path d="M0 0 C4.02992782 0.55312735 8.02022924 1.1558062 12 2 C12 2.33 12 2.66 12 3 C10.56344146 3.08131463 9.1255517 3.13933559 7.6875 3.1875 C6.48673828 3.23970703 6.48673828 3.23970703 5.26171875 3.29296875 C2.52148416 2.93801608 1.70828921 2.10633718 0 0 Z " fill="#CF0C11" transform="translate(1226,749)"/>
<path d="M0 0 C0 0.99 0 1.98 0 3 C-2.31 4.32 -4.62 5.64 -7 7 C-7.33 6.34 -7.66 5.68 -8 5 C-4.04 2.525 -4.04 2.525 0 0 Z " fill="#EE1920" transform="translate(573,167)"/>
<path d="M0 0 C3.5 0.3125 3.5 0.3125 7 1 C7.33 1.66 7.66 2.32 8 3 C4.625 3.125 4.625 3.125 1 3 C0.34 2.34 -0.32 1.68 -1 1 C-0.67 0.67 -0.34 0.34 0 0 Z " fill="#EE2029" transform="translate(438,337)"/>
</svg>
